<svg width="585" height="480" viewBox="0 0 585 480" fill="none" xmlns="http://www.w3.org/2000/svg">
<g clip-path="url(#clip0_167_363)">
<path d="M299.539 113.944H296.908V41.7714C296.908 30.693 292.507 20.0682 284.673 12.2346C276.839 4.40091 266.215 5.44885e-09 255.136 5.44885e-09H102.225C96.7395 -8.85926e-05 91.3077 1.08027 86.2397 3.1794C81.1717 5.27853 76.5668 8.35532 72.6879 12.2341C68.809 16.1129 65.7321 20.7177 63.6328 25.7856C61.5335 30.8535 60.453 36.2853 60.4529 41.7708V437.717C60.4529 443.202 61.5333 448.634 63.6326 453.702C65.7318 458.77 68.8086 463.375 72.6875 467.253C76.5663 471.132 81.1711 474.209 86.2391 476.308C91.307 478.408 96.7388 479.488 102.224 479.488H255.134C266.213 479.488 276.837 475.087 284.671 467.253C292.505 459.42 296.906 448.795 296.906 437.717V165.318H299.537L299.539 113.944Z" fill="#3F3D56"/>
<path d="M288.389 38.9736V440.513C288.387 448.913 285.05 456.968 279.112 462.908C273.173 468.848 265.118 472.186 256.719 472.189H100.67C92.2676 472.191 84.2084 468.854 78.2654 462.914C72.3223 456.974 68.9822 448.916 68.9797 440.513V38.9736C68.9822 30.5711 72.3222 22.5136 78.2649 16.5734C84.2077 10.6331 92.2666 7.29666 100.669 7.29773H119.599C118.669 9.58346 118.315 12.0625 118.568 14.517C118.821 16.9715 119.673 19.3262 121.05 21.3743C122.426 23.4223 124.284 25.101 126.461 26.2627C128.638 27.4244 131.067 28.0336 133.534 28.0367H222.5C224.968 28.0336 227.397 27.4244 229.573 26.2627C231.75 25.101 233.609 23.4223 234.985 21.3743C236.361 19.3262 237.213 16.9715 237.466 14.517C237.719 12.0625 237.365 9.58346 236.436 7.29773H256.713C265.112 7.29916 273.167 10.6361 279.107 16.5748C285.047 22.5136 288.385 30.568 288.389 38.9675V38.9736Z" fill="white"/>
<path d="M252.163 386.046H108.048C102.865 386.04 97.8961 383.979 94.231 380.314C90.566 376.649 88.5044 371.68 88.4985 366.496V163.759C88.4985 114.534 128.545 74.4875 177.769 74.4875H252.164C257.347 74.4934 262.316 76.555 265.981 80.22C269.646 83.8849 271.707 88.8541 271.713 94.0371V366.496C271.707 371.68 269.646 376.649 265.981 380.314C262.316 383.979 257.346 386.041 252.163 386.046Z" fill="#E6E6E6"/>
<path d="M99.4156 434.848C105.146 434.848 109.791 430.203 109.791 424.473C109.791 418.743 105.146 414.098 99.4156 414.098C93.6855 414.098 89.0403 418.743 89.0403 424.473C89.0403 430.203 93.6855 434.848 99.4156 434.848Z" fill="#E6E6E6"/>
<path d="M261 434.848C266.73 434.848 271.376 430.203 271.376 424.473C271.376 418.743 266.73 414.098 261 414.098C255.27 414.098 250.625 418.743 250.625 424.473C250.625 430.203 255.27 434.848 261 434.848Z" fill="#E6E6E6"/>
<path d="M262.407 385.647L255.975 392.657L225.879 371.184L235.372 360.839L262.407 385.647Z" fill="#FFB6B6"/>
<path d="M270.841 390.094L250.102 412.695L249.817 412.432C247.484 410.291 246.097 407.312 245.961 404.148C245.825 400.985 246.951 397.897 249.091 395.564L249.092 395.563L249.748 388.561L259.948 383.732L261.759 381.76L270.841 390.094Z" fill="#2F2E41"/>
<path d="M266.612 463.867L257.099 463.866L252.574 427.174L266.614 427.174L266.612 463.867Z" fill="#FFB6B6"/>
<path d="M269.038 473.088L238.364 473.087V472.699C238.364 469.533 239.622 466.496 241.861 464.257C244.1 462.018 247.137 460.76 250.303 460.76H250.304L255.907 456.51L266.361 460.761L269.039 460.761L269.038 473.088Z" fill="#2F2E41"/>
<path d="M220.673 278.635C220.673 278.635 162.559 334.744 199.298 352.112H210.653C210.653 352.112 214.066 339.989 221.878 329.765C222.95 328.362 226.969 328.647 228.086 327.278C234.901 318.924 242.289 311.749 247.392 312.034L250.731 350.776L249.083 362.131C248.046 369.28 248.319 376.557 249.889 383.608L248.727 428.928L269.104 428.94C269.104 428.94 269.927 418.319 270.615 405.034C270.799 401.475 272.33 398.995 272.477 395.207C272.829 386.126 271.663 375.555 271.438 368.143L286.802 286.651L220.673 278.635Z" fill="#2F2E41"/>
<path d="M247.514 159.752L238.039 172.428L215.328 185.786L228.686 220.52L229.193 246.364L227.949 249.481L229.354 254.587C229.354 254.587 228.706 260.562 225.251 264.998C219.21 272.755 209.986 281.185 219.334 283.31C234.03 286.65 286.132 293.997 288.803 287.986C289.727 285.906 289.613 277.113 289.067 266.5C288.965 264.515 286.773 262.356 286.644 260.276C286.548 258.715 288.521 257.247 288.414 255.664C287.222 238.026 285.464 219.853 285.464 219.853L290.692 171.221L269.778 165.824L267.43 159.838L247.514 159.752Z" fill="#E86252"/>
<path d="M196.508 348.779L199.614 352.704C199.614 352.704 228.182 372.69 229.163 374.558L233.678 378.83L244.602 367.153L238.921 360.032C234.375 354.334 228.501 349.837 221.814 346.935L213.107 339.211L196.508 348.779Z" fill="#2F2E41"/>
<path d="M214.66 292.683L219.863 242.327L221.236 221.602L206.674 218.969C206.674 218.969 204.494 233.216 202.586 241.577C200.704 249.828 205.094 291.577 205.21 292.678C204.141 293.634 203.387 294.893 203.049 296.287C202.71 297.681 202.803 299.145 203.314 300.485C203.825 301.825 204.732 302.979 205.913 303.793C207.094 304.607 208.495 305.043 209.929 305.044C211.364 305.044 212.765 304.61 213.947 303.797C215.129 302.984 216.037 301.831 216.549 300.491C217.062 299.152 217.156 297.688 216.819 296.293C216.481 294.899 215.729 293.64 214.66 292.683Z" fill="#FFB9B9"/>
<path d="M195.847 250.787L220.983 257.167L220.809 250.112L222.717 248.088L226.529 228.12L231.997 216.423L230.576 176.423L216.686 183.79L216.669 183.803C214.243 186.471 212.214 189.475 210.645 192.722C205.409 203.367 200.379 226.814 197.746 240.433C197.655 240.719 197.481 240.97 197.245 241.155C195.938 242.354 195.086 243.967 194.831 245.722C194.577 247.477 194.935 249.266 195.847 250.787Z" fill="#E86252"/>
<path d="M345.122 263.643C345.122 263.643 314.521 231.38 314.235 230.772C312.098 214.539 305.949 207.379 305.028 208.156L289.159 213.654C289.159 213.654 293.879 228.6 297.075 237.479C300.129 245.962 335.323 266.683 335.91 267.706C335.28 269.098 335.087 270.649 335.357 272.154C335.627 273.658 336.347 275.045 337.423 276.131C338.498 277.217 339.878 277.951 341.38 278.236C342.881 278.521 344.434 278.343 345.832 277.726C347.231 277.109 348.409 276.083 349.211 274.782C350.013 273.481 350.402 271.967 350.325 270.44C350.248 268.914 349.709 267.446 348.78 266.233C347.851 265.019 346.576 264.116 345.122 263.643Z" fill="#FFB9B9"/>
<path d="M276.345 172.331C276.345 172.331 291.922 164.697 297.964 179.691C301.276 188.156 309.748 208.7 313.969 221.346C313.997 221.427 314.036 221.503 314.084 221.573C315.213 223.251 315.823 225.224 315.836 227.246C315.834 227.394 315.85 227.541 315.881 227.684C315.881 227.684 298.764 231.019 293.672 239.992L291.653 237.8L291.294 236.265L276.525 196.858L276.345 172.331Z" fill="#E86252"/>
<path d="M530.734 233.528H348.359C346.734 233.526 345.176 232.88 344.027 231.731C342.878 230.582 342.231 229.024 342.229 227.399V200.688C342.231 199.063 342.878 197.505 344.027 196.356C345.176 195.207 346.734 194.561 348.359 194.559H530.734C532.359 194.561 533.917 195.207 535.066 196.356C536.215 197.505 536.861 199.063 536.863 200.688V227.399C536.861 229.024 536.215 230.582 535.066 231.731C533.917 232.88 532.359 233.526 530.734 233.528Z" fill="#E6E6E6"/>
<path d="M513.014 229.394H352.494C350.869 229.392 349.311 228.745 348.162 227.596C347.013 226.447 346.367 224.889 346.365 223.264V204.826C346.367 203.201 347.013 201.643 348.162 200.494C349.311 199.345 350.869 198.699 352.494 198.697H526.6C528.225 198.699 529.782 199.345 530.932 200.494C532.081 201.643 532.727 203.201 532.729 204.826V209.679C532.723 214.906 530.644 219.917 526.948 223.613C523.252 227.309 518.241 229.388 513.014 229.394Z" fill="white"/>
<path d="M457.644 212.143H384.343C383.924 212.143 383.522 211.977 383.225 211.68C382.929 211.384 382.762 210.982 382.762 210.563C382.762 210.143 382.929 209.741 383.225 209.445C383.522 209.148 383.924 208.982 384.343 208.982H457.644C458.063 208.982 458.465 209.148 458.762 209.445C459.058 209.741 459.225 210.143 459.225 210.563C459.225 210.982 459.058 211.384 458.762 211.68C458.465 211.977 458.063 212.143 457.644 212.143Z" fill="#6C63FF"/>
<path d="M494.75 218.609H384.343C383.924 218.609 383.522 218.442 383.225 218.146C382.929 217.849 382.762 217.447 382.762 217.028C382.762 216.609 382.929 216.207 383.225 215.91C383.522 215.614 383.924 215.447 384.343 215.447H494.75C495.169 215.447 495.571 215.614 495.868 215.91C496.164 216.207 496.331 216.609 496.331 217.028C496.331 217.447 496.164 217.849 495.868 218.146C495.571 218.442 495.169 218.609 494.75 218.609Z" fill="#E6E6E6"/>
<path d="M530.734 290.199H348.359C346.734 290.197 345.176 289.551 344.027 288.402C342.878 287.253 342.231 285.695 342.229 284.07V257.36C342.231 255.735 342.878 254.177 344.027 253.028C345.176 251.879 346.734 251.232 348.359 251.23H530.734C532.359 251.232 533.917 251.879 535.066 253.028C536.215 254.177 536.861 255.735 536.863 257.36V284.07C536.861 285.695 536.215 287.253 535.066 288.402C533.917 289.551 532.359 290.197 530.734 290.199Z" fill="#E6E6E6"/>
<path d="M513.014 286.065H352.494C350.869 286.063 349.311 285.417 348.162 284.268C347.013 283.119 346.367 281.561 346.365 279.936V261.497C346.367 259.872 347.013 258.314 348.162 257.165C349.311 256.016 350.869 255.37 352.494 255.368H526.6C528.225 255.37 529.782 256.016 530.932 257.165C532.081 258.314 532.727 259.872 532.729 261.497V266.35C532.723 271.577 530.644 276.588 526.948 280.284C523.252 283.98 518.241 286.059 513.014 286.065Z" fill="white"/>
<path d="M457.644 268.815H384.343C384.135 268.815 383.93 268.774 383.738 268.694C383.546 268.615 383.372 268.498 383.225 268.352C383.078 268.205 382.962 268.031 382.883 267.839C382.803 267.647 382.762 267.441 382.762 267.234C382.762 267.026 382.803 266.821 382.883 266.629C382.962 266.437 383.078 266.263 383.225 266.116C383.372 265.969 383.546 265.853 383.738 265.774C383.93 265.694 384.135 265.653 384.343 265.653H457.644C458.063 265.653 458.465 265.82 458.762 266.116C459.058 266.413 459.225 266.815 459.225 267.234C459.225 267.653 459.058 268.055 458.762 268.352C458.465 268.648 458.063 268.815 457.644 268.815Z" fill="#6C63FF"/>
<path d="M494.75 275.28H384.343C384.135 275.28 383.93 275.239 383.738 275.16C383.546 275.08 383.372 274.964 383.225 274.817C383.078 274.67 382.962 274.496 382.883 274.304C382.803 274.112 382.762 273.907 382.762 273.699C382.762 273.492 382.803 273.286 382.883 273.094C382.962 272.902 383.078 272.728 383.225 272.581C383.372 272.435 383.546 272.318 383.738 272.239C383.93 272.159 384.135 272.118 384.343 272.118H494.75C495.169 272.118 495.571 272.285 495.868 272.581C496.164 272.878 496.331 273.28 496.331 273.699C496.331 274.118 496.164 274.52 495.868 274.817C495.571 275.113 495.169 275.28 494.75 275.28Z" fill="#E6E6E6"/>
<path d="M530.734 346.87H348.359C346.734 346.869 345.176 346.222 344.027 345.073C342.878 343.924 342.231 342.366 342.229 340.741V314.031C342.231 312.406 342.878 310.848 344.027 309.699C345.176 308.55 346.734 307.903 348.359 307.902H530.734C532.359 307.903 533.917 308.55 535.066 309.699C536.215 310.848 536.861 312.406 536.863 314.031V340.741C536.861 342.366 536.215 343.924 535.066 345.073C533.917 346.222 532.359 346.869 530.734 346.87Z" fill="#E6E6E6"/>
<path d="M513.014 342.736H352.494C350.869 342.734 349.311 342.088 348.162 340.939C347.013 339.79 346.367 338.232 346.365 336.607V318.168C346.367 316.543 347.013 314.986 348.162 313.836C349.311 312.687 350.869 312.041 352.494 312.039H526.6C528.225 312.041 529.782 312.687 530.932 313.836C532.081 314.986 532.727 316.543 532.729 318.168V323.021C532.723 328.248 530.644 333.259 526.948 336.955C523.252 340.651 518.241 342.73 513.014 342.736Z" fill="white"/>
<path d="M457.644 325.486H384.343C383.924 325.486 383.522 325.319 383.225 325.023C382.929 324.726 382.762 324.324 382.762 323.905C382.762 323.486 382.929 323.084 383.225 322.787C383.522 322.491 383.924 322.324 384.343 322.324H457.644C458.063 322.324 458.465 322.491 458.762 322.787C459.058 323.084 459.225 323.486 459.225 323.905C459.225 324.324 459.058 324.726 458.762 325.023C458.465 325.319 458.063 325.486 457.644 325.486Z" fill="#6C63FF"/>
<path d="M494.75 331.951H384.343C383.924 331.951 383.522 331.785 383.225 331.488C382.929 331.192 382.762 330.79 382.762 330.37C382.762 329.951 382.929 329.549 383.225 329.253C383.522 328.956 383.924 328.79 384.343 328.79H494.75C495.169 328.79 495.571 328.956 495.868 329.253C496.164 329.549 496.331 329.951 496.331 330.37C496.331 330.79 496.164 331.192 495.868 331.488C495.571 331.785 495.169 331.951 494.75 331.951Z" fill="#E6E6E6"/>
<path d="M257.499 155.683C268.033 155.683 276.573 147.143 276.573 136.609C276.573 126.074 268.033 117.535 257.499 117.535C246.965 117.535 238.425 126.074 238.425 136.609C238.425 147.143 246.965 155.683 257.499 155.683Z" fill="#FFB9B9"/>
<path d="M243.475 148.876C243.246 148.877 243.019 148.84 242.802 148.767C241.951 148.394 241.239 147.762 240.768 146.96C237.484 142.237 235.899 135.939 236.056 128.243C236.123 124.987 236.491 120.823 238.771 117.505C240.689 114.714 244.568 112.5 248.183 113.611C248.142 112.889 248.302 112.168 248.647 111.531C248.991 110.894 249.505 110.366 250.133 110.004C251.502 109.165 253.15 109.011 254.604 108.874C258.276 108.53 262.072 108.175 265.789 108.879C269.958 109.67 273.366 111.818 275.141 114.774L275.177 114.867L275.538 116.618C275.586 116.854 275.685 117.076 275.828 117.269C275.97 117.463 276.153 117.623 276.363 117.739C276.574 117.855 276.807 117.924 277.047 117.942C277.286 117.959 277.527 117.924 277.752 117.84C277.998 117.747 278.263 117.72 278.522 117.762C278.781 117.803 279.025 117.912 279.23 118.076C279.434 118.241 279.592 118.456 279.688 118.7C279.784 118.944 279.815 119.209 279.777 119.469L279.676 120.165L280.725 119.969C280.987 119.92 281.258 119.942 281.509 120.031C281.761 120.121 281.984 120.276 282.156 120.48C282.328 120.684 282.443 120.93 282.489 121.193C282.535 121.455 282.511 121.726 282.418 121.976L282.122 122.777C282.339 122.779 282.553 122.824 282.752 122.912C282.95 122.999 283.129 123.127 283.276 123.286C283.489 123.514 283.622 123.804 283.658 124.113C283.693 124.422 283.629 124.735 283.474 125.005C282.303 127.009 280.64 128.682 278.643 129.866C277.552 130.522 276.359 130.991 275.113 131.254C267.028 132.999 258.691 133.25 250.515 131.994C250.999 133.606 251.185 135.294 251.065 136.973C250.803 139.073 249.57 140.806 247.924 141.387C247.549 141.509 247.165 141.602 246.776 141.664C246.404 141.722 246.037 141.811 245.68 141.93C245.151 142.125 244.682 142.456 244.321 142.889C243.96 143.323 243.72 143.844 243.625 144.4C243.53 144.955 243.583 145.527 243.779 146.056C243.975 146.584 244.307 147.052 244.741 147.412L245.553 146.566L245.289 147.641C245.234 147.851 245.135 148.046 245 148.215C244.864 148.384 244.695 148.522 244.502 148.621C244.186 148.79 243.833 148.877 243.475 148.876Z" fill="#2F2E41"/>
<path d="M509.698 436.879L510.47 419.527C518.515 415.227 527.487 412.955 536.609 412.91C524.055 423.174 525.624 442.96 517.112 456.763C514.425 461.047 510.807 464.672 506.528 467.369C502.249 470.065 497.418 471.764 492.393 472.34L481.887 478.772C480.446 470.736 480.764 462.482 482.819 454.58C484.874 446.678 488.618 439.316 493.793 433C496.731 429.486 500.1 426.355 503.82 423.683C506.337 430.318 509.698 436.879 509.698 436.879Z" fill="#63BE63"/>
<path d="M584.031 479.197C584.031 479.303 584.011 479.407 583.97 479.505C583.93 479.602 583.871 479.691 583.796 479.766C583.722 479.84 583.633 479.899 583.536 479.94C583.438 479.98 583.333 480 583.228 480H0.802844C0.589917 480 0.385718 479.915 0.235156 479.765C0.0845941 479.614 0 479.41 0 479.197C0 478.984 0.0845941 478.78 0.235156 478.629C0.385718 478.479 0.589917 478.394 0.802844 478.394H583.228C583.334 478.394 583.438 478.415 583.536 478.455C583.633 478.495 583.722 478.554 583.796 478.629C583.871 478.703 583.93 478.792 583.97 478.89C584.011 478.987 584.031 479.092 584.031 479.197Z" fill="#CCCCCC"/>
<path d="M535.385 413.5C506.295 426.337 519.748 440.316 481.885 478" stroke="white"/>
<path d="M491 437.5C489.891 446.839 491.658 451.333 497.5 458.5" stroke="white"/>
<path d="M506 446C513.618 446.583 517.444 445.722 522.5 439.5" stroke="white"/>
</g>
<defs>
<clipPath id="clip0_167_363">
<rect width="584.031" height="480" fill="white"/>
</clipPath>
</defs>
</svg>
