<svg width="667" height="420" viewBox="0 0 667 420" fill="none" xmlns="http://www.w3.org/2000/svg">
<g clip-path="url(#clip0_167_205)">
<path d="M352.077 20.7984C393.518 -0.702766 446.115 10.5692 474 48.6937L473.051 49.3468C445.51 11.6929 393.556 0.562802 352.626 21.7938C349.148 23.598 345.792 25.6129 342.575 27.8264C300.484 56.7751 290.529 113.532 320.382 154.347L319.433 155C289.208 113.677 299.288 56.2143 341.902 26.9059C345.158 24.6653 348.557 22.6255 352.077 20.7984Z" fill="#E6E6E6"/>
<path d="M586.758 122.547L429.048 110.278C426.6 110.084 424.328 108.928 422.732 107.062C421.135 105.196 420.344 102.773 420.532 100.324L427.369 23.699C427.562 21.2509 428.718 18.9794 430.584 17.3828C432.45 15.7862 434.873 14.995 437.322 15.1827L595.031 27.4518C597.48 27.645 599.751 28.8015 601.348 30.6674C602.944 32.5334 603.736 34.9564 603.548 37.405L596.711 114.03C596.518 116.479 595.361 118.75 593.495 120.347C591.629 121.943 589.206 122.734 586.758 122.547Z" fill="#E6E6E6"/>
<path d="M549.505 105.236C548.308 105.236 547.106 105.189 545.901 105.096L443.978 97.1665C441.94 97.008 439.954 96.4497 438.131 95.5234C436.309 94.5971 434.688 93.3209 433.359 91.7678C432.03 90.2147 431.02 88.415 430.386 86.4715C429.753 84.5281 429.508 82.4789 429.667 80.441L431.991 50.5653C432.316 46.4512 434.259 42.6338 437.395 39.9507C440.531 37.2676 444.603 35.9379 448.717 36.2534L580.515 46.5067C584.629 46.8316 588.446 48.7749 591.129 51.9105C593.812 55.0461 595.142 59.1178 594.827 63.2325C593.938 74.6499 588.78 85.3133 580.38 93.0977C571.981 100.882 560.957 105.216 549.505 105.236Z" fill="white"/>
<path d="M577.361 70.2568L448.16 60.2055C447.89 60.1845 447.628 60.1108 447.387 59.9884C447.147 59.8661 446.933 59.6975 446.757 59.4924C446.581 59.2872 446.448 59.0495 446.364 58.7928C446.281 58.5361 446.248 58.2655 446.269 57.9963C446.29 57.7271 446.364 57.4647 446.486 57.2241C446.609 56.9834 446.777 56.7692 446.982 56.5936C447.188 56.4181 447.425 56.2847 447.682 56.2011C447.939 56.1174 448.209 56.0851 448.479 56.106L577.68 66.1574C577.95 66.1783 578.212 66.2521 578.453 66.3744C578.693 66.4968 578.908 66.6654 579.083 66.8705C579.259 67.0756 579.392 67.3133 579.476 67.57C579.559 67.8267 579.592 68.0974 579.571 68.3666C579.55 68.6357 579.476 68.8982 579.354 69.1388C579.231 69.3795 579.063 69.5937 578.858 69.7692C578.652 69.9448 578.415 70.0782 578.158 70.1618C577.901 70.2455 577.631 70.2778 577.361 70.2568Z" fill="#E6E6E6"/>
<path d="M586.195 74.2317L510.011 68.305C509.467 68.2624 508.963 68.0057 508.609 67.5914C508.255 67.1772 508.08 66.6392 508.122 66.0958C508.164 65.5523 508.42 65.0479 508.834 64.6934C509.249 64.3389 509.786 64.1634 510.33 64.2053L586.514 70.1321C586.783 70.1529 587.046 70.2266 587.286 70.3489C587.527 70.4712 587.742 70.6397 587.917 70.8449C588.093 71.0501 588.227 71.2879 588.31 71.5447C588.394 71.8014 588.426 72.0722 588.405 72.3415C588.384 72.6108 588.311 72.8733 588.188 73.1141C588.066 73.3548 587.897 73.5691 587.692 73.7446C587.487 73.9202 587.249 74.0536 586.992 74.1371C586.735 74.2207 586.464 74.2529 586.195 74.2317Z" fill="#E6E6E6"/>
<path d="M540.496 83.6859L446.899 76.4045C446.63 76.3837 446.367 76.3101 446.127 76.1878C445.886 76.0655 445.671 75.8969 445.496 75.6917C445.32 75.4866 445.186 75.2488 445.103 74.992C445.019 74.7352 444.987 74.4644 445.008 74.1951C445.029 73.9258 445.102 73.6633 445.225 73.4226C445.347 73.1818 445.516 72.9675 445.721 72.792C445.927 72.6165 446.164 72.4831 446.421 72.3995C446.678 72.3159 446.949 72.2838 447.218 72.3049L540.814 79.5863C541.358 79.6289 541.862 79.8855 542.216 80.2998C542.571 80.714 542.746 81.252 542.704 81.7954C542.661 82.3389 542.405 82.8433 541.991 83.1978C541.577 83.5523 541.039 83.7278 540.496 83.6859Z" fill="#E6E6E6"/>
<path d="M576.204 226.565L418.495 214.295C416.046 214.102 413.775 212.946 412.178 211.08C410.582 209.214 409.791 206.791 409.978 204.342L416.815 127.717C417.009 125.269 418.165 122.997 420.031 121.401C421.897 119.804 424.32 119.013 426.768 119.2L584.478 131.47C586.926 131.663 589.198 132.819 590.794 134.685C592.391 136.551 593.182 138.974 592.995 141.423L586.158 218.048C585.964 220.496 584.808 222.768 582.942 224.364C581.076 225.961 578.653 226.752 576.204 226.565Z" fill="#E6E6E6"/>
<path d="M538.911 209.252C537.731 209.252 536.543 209.206 535.347 209.113L433.425 201.184C431.387 201.026 429.4 200.467 427.578 199.541C425.756 198.615 424.134 197.339 422.805 195.786C421.476 194.233 420.466 192.433 419.833 190.489C419.199 188.546 418.955 186.497 419.113 184.459L421.437 154.583C421.596 152.545 422.154 150.559 423.081 148.736C424.007 146.914 425.283 145.292 426.837 143.963C428.39 142.634 430.19 141.624 432.133 140.991C434.077 140.357 436.126 140.113 438.164 140.272L569.961 150.525C571.999 150.683 573.986 151.242 575.808 152.168C577.63 153.094 579.252 154.371 580.581 155.924C581.91 157.477 582.92 159.276 583.554 161.22C584.187 163.163 584.431 165.213 584.273 167.251C583.37 178.67 578.203 189.331 569.797 197.113C561.392 204.896 550.366 209.229 538.911 209.252Z" fill="white"/>
<path d="M566.808 174.275L437.606 164.223C437.337 164.202 437.075 164.129 436.834 164.006C436.594 163.884 436.379 163.715 436.204 163.51C436.028 163.305 435.895 163.067 435.811 162.811C435.727 162.554 435.695 162.283 435.716 162.014C435.737 161.745 435.811 161.483 435.933 161.242C436.056 161.001 436.224 160.787 436.429 160.611C436.634 160.436 436.872 160.303 437.129 160.219C437.386 160.135 437.656 160.103 437.925 160.124L567.127 170.175C567.396 170.196 567.659 170.27 567.899 170.392C568.14 170.515 568.354 170.683 568.53 170.888C568.705 171.093 568.839 171.331 568.922 171.588C569.006 171.845 569.038 172.115 569.017 172.384C568.997 172.654 568.923 172.916 568.8 173.157C568.678 173.397 568.509 173.612 568.304 173.787C568.099 173.963 567.861 174.096 567.605 174.18C567.348 174.263 567.077 174.296 566.808 174.275Z" fill="#E6E6E6"/>
<path d="M513.16 178.25L436.976 172.323C436.707 172.302 436.444 172.228 436.203 172.106C435.962 171.984 435.748 171.815 435.572 171.61C435.397 171.405 435.263 171.167 435.179 170.91C435.096 170.653 435.063 170.383 435.084 170.113C435.105 169.844 435.179 169.582 435.302 169.341C435.424 169.1 435.593 168.886 435.798 168.71C436.003 168.535 436.241 168.401 436.498 168.318C436.755 168.234 437.026 168.202 437.295 168.223L513.479 174.15C514.022 174.192 514.526 174.449 514.881 174.863C515.235 175.278 515.41 175.816 515.368 176.359C515.326 176.903 515.069 177.407 514.655 177.761C514.241 178.116 513.703 178.291 513.16 178.25Z" fill="#E6E6E6"/>
<path d="M529.942 187.704L436.346 180.422C435.802 180.38 435.298 180.123 434.943 179.709C434.589 179.295 434.413 178.757 434.455 178.213C434.498 177.669 434.754 177.165 435.169 176.81C435.583 176.456 436.121 176.28 436.665 176.323L530.261 183.604C530.805 183.646 531.309 183.903 531.664 184.317C532.018 184.731 532.194 185.27 532.151 185.813C532.109 186.357 531.853 186.862 531.438 187.216C531.024 187.571 530.486 187.746 529.942 187.704Z" fill="#E6E6E6"/>
<path d="M237.518 186.53C235.516 181.993 234.427 177.107 234.314 172.149C234.2 167.192 235.064 162.261 236.857 157.637C238.649 153.014 241.335 148.788 244.76 145.203C248.185 141.617 252.283 138.741 256.82 136.739C261.356 134.738 266.243 133.649 271.2 133.535C276.158 133.422 281.089 134.286 285.712 136.078C290.336 137.871 294.561 140.556 298.147 143.982C301.732 147.407 304.608 151.505 306.61 156.041L305.378 156.585C303.447 152.21 300.674 148.259 297.216 144.956C293.759 141.652 289.684 139.063 285.226 137.334C280.767 135.606 276.012 134.773 271.231 134.882C266.451 134.991 261.738 136.041 257.364 137.972C252.989 139.902 249.037 142.675 245.734 146.133C242.431 149.591 239.841 153.665 238.113 158.124C236.384 162.582 235.551 167.338 235.66 172.118C235.769 176.899 236.819 181.611 238.75 185.986L237.518 186.53Z" fill="#E6E6E6"/>
<path d="M566.436 397.111C581.854 389.805 593.338 375.106 591.546 358.953C577.715 370.153 558.883 376.407 539.443 376.258C531.871 376.199 523.391 375.429 517.889 379.678C514.465 382.321 512.921 386.519 512.725 390.703C512.53 394.887 513.545 399.121 514.553 403.3L514.246 404.291C532.349 405.443 551.018 404.417 566.436 397.111Z" fill="#63BE63"/>
<path d="M591.167 358.913C585.204 370.548 574.866 380.245 562.017 385.922C559.202 387.235 556.205 388.116 553.126 388.534C549.992 388.862 546.824 388.448 543.878 387.325C541.086 386.323 538.333 385.018 535.372 384.621C533.922 384.419 532.446 384.511 531.033 384.892C529.619 385.273 528.297 385.936 527.145 386.839C524.409 388.967 522.776 391.912 521.297 394.85C519.655 398.112 518.009 401.527 514.794 403.75C514.404 404.019 514.947 404.58 515.336 404.311C520.931 400.443 521.738 393.45 526.184 388.766C527.23 387.583 528.529 386.653 529.986 386.044C531.442 385.435 533.018 385.164 534.594 385.25C537.616 385.473 540.456 386.817 543.275 387.852C546.142 388.985 549.218 389.489 552.296 389.332C555.399 389.059 558.438 388.286 561.295 387.044C567.508 384.458 573.258 380.88 578.323 376.45C583.918 371.611 588.536 365.747 591.93 359.175C592.136 358.773 591.372 358.513 591.167 358.913Z" fill="white"/>
<path d="M566.321 384.282C567.944 386.197 570.124 387.558 572.556 388.177C574.989 388.795 577.554 388.64 579.894 387.732C580.343 387.544 579.977 386.886 579.527 387.075C577.35 387.923 574.961 388.068 572.697 387.488C570.434 386.908 568.408 385.634 566.907 383.843C566.591 383.46 566.008 383.901 566.321 384.282Z" fill="white"/>
<path d="M545.234 387.995C545.533 385.722 546.309 383.538 547.513 381.587C548.716 379.636 550.319 377.963 552.216 376.676C552.604 376.405 552.062 375.845 551.674 376.115C549.703 377.458 548.039 379.203 546.791 381.236C545.544 383.269 544.741 385.543 544.437 387.909C544.382 388.36 545.179 388.443 545.234 387.995Z" fill="white"/>
<path d="M583.002 371.117C582.261 370.547 581.677 369.797 581.307 368.939C580.937 368.08 580.792 367.141 580.886 366.211C580.948 365.761 580.15 365.678 580.089 366.125C579.989 367.153 580.15 368.189 580.557 369.139C580.964 370.088 581.604 370.919 582.417 371.556C582.49 371.628 582.586 371.673 582.688 371.684C582.79 371.695 582.893 371.672 582.981 371.617C583.018 371.588 583.049 371.551 583.071 371.508C583.093 371.466 583.106 371.419 583.108 371.372C583.11 371.324 583.101 371.277 583.083 371.233C583.065 371.189 583.037 371.149 583.002 371.117Z" fill="white"/>
<path d="M540.678 324.799C540.631 325.078 540.583 325.357 540.53 325.638C539.87 329.379 538.862 333.051 537.519 336.604C537.42 336.881 537.316 337.159 537.208 337.432C533.812 346.036 528.647 353.832 522.048 360.314C519.36 362.963 516.46 365.388 513.378 367.566C509.082 370.606 504.123 373.576 501.404 377.672C501.116 378.095 500.858 378.537 500.632 378.995L512.881 403.779C512.94 403.825 512.992 403.874 513.051 403.92L513.491 404.926C513.661 404.823 513.835 404.713 514.005 404.61C514.104 404.551 514.2 404.486 514.3 404.427C514.365 404.385 514.43 404.344 514.492 404.31C514.513 404.297 514.535 404.283 514.551 404.271C514.612 404.237 514.665 404.2 514.721 404.168C515.695 403.555 516.665 402.934 517.631 402.306C517.637 402.304 517.637 402.304 517.641 402.297C524.988 397.492 531.898 392.063 537.575 385.8C537.746 385.611 537.923 385.421 538.088 385.221C540.612 382.406 542.872 379.366 544.84 376.138C545.901 374.383 546.859 372.568 547.71 370.702C549.893 365.882 551.187 360.706 551.529 355.425C552.221 344.847 549.083 333.909 541.281 325.441C541.081 325.224 540.884 325.013 540.678 324.799Z" fill="#63BE63"/>
<path d="M540.365 324.967C543.777 338.051 542.602 351.851 536.825 363.592C535.623 366.2 533.968 368.573 531.936 370.601C529.76 372.596 527.085 373.964 524.194 374.562C521.425 375.217 518.481 375.595 515.995 376.855C514.775 377.465 513.718 378.356 512.908 379.454C512.099 380.552 511.56 381.826 511.337 383.171C510.729 386.452 511.501 389.829 512.382 393.119C513.36 396.771 514.44 400.555 513.537 404.174C513.428 404.613 514.214 404.795 514.323 404.357C515.894 398.06 511.764 391.693 511.922 385.323C511.995 382.351 513.078 379.455 515.838 377.807C518.252 376.367 521.287 375.976 524.099 375.334C526.941 374.782 529.603 373.544 531.855 371.726C534.001 369.812 535.762 367.507 537.044 364.933C539.984 359.264 541.873 353.109 542.62 346.767C543.517 339.408 543.006 331.946 541.115 324.778C540.997 324.326 540.248 324.518 540.365 324.967Z" fill="white"/>
<path d="M538.937 359.881C543.976 361.46 549.322 359.571 551.435 355.49C551.643 355.088 550.924 354.727 550.715 355.13C548.736 358.954 543.789 360.669 539.078 359.193C538.583 359.038 538.444 359.727 538.937 359.881Z" fill="white"/>
<path d="M525.663 374.399C524.373 372.452 523.491 370.264 523.073 367.966C522.654 365.669 522.707 363.31 523.228 361.034C523.335 360.595 522.55 360.412 522.442 360.85C521.906 363.221 521.856 365.676 522.297 368.066C522.738 370.457 523.66 372.733 525.008 374.756C525.271 375.168 525.925 374.809 525.663 374.399Z" fill="white"/>
<path d="M542.514 339.721C541.524 339.609 540.572 339.28 539.724 338.758C538.876 338.236 538.154 337.534 537.608 336.701C537.35 336.286 536.697 336.646 536.953 337.058C537.559 337.976 538.358 338.751 539.294 339.33C540.23 339.908 541.28 340.277 542.372 340.409C542.589 340.435 542.792 340.359 542.836 340.157C542.848 340.057 542.821 339.956 542.761 339.875C542.701 339.794 542.613 339.739 542.514 339.721Z" fill="white"/>
<path d="M566.682 221.141L557.311 171.255L538.915 147.042L525.282 155.955C527.208 166.404 541.78 185.909 541.78 185.909L554.696 224.49C554.644 224.69 554.597 224.893 554.562 225.101C554.357 226.321 554.47 227.574 554.891 228.738C555.312 229.902 556.026 230.937 556.964 231.745C557.902 232.552 559.033 233.104 560.246 233.347C561.46 233.589 562.715 233.515 563.892 233.131C565.068 232.746 566.126 232.065 566.962 231.153C567.798 230.24 568.385 229.127 568.665 227.922C568.946 226.717 568.911 225.459 568.563 224.271C568.216 223.084 567.568 222.005 566.682 221.141Z" fill="#FFB8B8"/>
<path d="M525.648 161.226L541.082 148.698L541.112 148.632C543.999 142.091 537.589 130.874 531.704 122.616C529.761 119.895 526.857 118.013 523.58 117.351C520.303 116.688 516.896 117.295 514.049 119.048C511.957 120.356 510.273 122.222 509.187 124.437C508.101 126.651 507.655 129.125 507.901 131.58L509.2 144.077L525.648 161.226Z" fill="#3F3D56"/>
<path d="M471.099 409.487L460.829 409.487L455.944 369.875L471.101 369.876L471.099 409.487Z" fill="#FFB8B8"/>
<path d="M473.718 406.134L470.828 406.134L459.543 401.544L453.494 406.133H453.493C450.075 406.133 446.797 407.491 444.38 409.908C441.963 412.325 440.605 415.603 440.604 419.022V419.44L473.718 419.442L473.718 406.134Z" fill="#2F2E41"/>
<path d="M516.667 409.487L506.397 409.487L501.512 369.875L516.669 369.876L516.667 409.487Z" fill="#FFB8B8"/>
<path d="M519.286 406.134L516.396 406.134L505.11 401.544L499.062 406.133H499.061C495.643 406.133 492.365 407.491 489.948 409.908C487.531 412.325 486.173 415.603 486.172 419.022V419.44L519.286 419.442L519.286 406.134Z" fill="#2F2E41"/>
<path d="M532.326 238.867C532.326 238.867 533.525 253.257 530.527 267.048C527.53 280.838 527.53 319.676 527.53 319.676L520.934 395.357L501.148 393.559L495.752 267.048L476.565 309.618L478.364 315.613L475.968 317.112C475.968 317.112 477.765 328.804 476.565 328.804C475.366 328.804 472.368 330.603 472.368 330.603L474.767 392.36L454.381 391.76L447.186 304.821L454.981 255.056L455.58 245.463L458.278 245.574L459.652 241.566L462.175 234.67L532.326 238.867Z" fill="#2F2E41"/>
<path d="M533.362 241.89L533.469 241.74C539.176 233.75 530.593 214.55 529.298 211.767L534.751 209.997L533.523 199.56L532.941 194.907L537.109 190.739L537.12 190.635L539.519 169.65L543.006 155.712C544.32 150.443 544.208 144.919 542.681 139.707C541.155 134.496 538.269 129.784 534.32 126.057L526.26 118.457L516.464 103.962H500.667L495.251 114.193C490 115.407 485.34 118.424 482.085 122.72C478.83 127.016 477.185 132.317 477.436 137.701L478.664 164.534L473.858 197.942L473.855 203.989L468.447 209.999L469.628 215.904L465.512 217.668L463.695 226.148C462.942 227.141 457.978 233.76 457.978 235.57C457.978 235.842 458.179 236.104 458.609 236.396C461.992 238.686 480.691 243.357 488.968 240.045C497.783 236.52 532.827 241.808 533.18 241.862L533.362 241.89Z" fill="#3F3D56"/>
<path d="M395.991 419.199C395.99 419.411 396.074 419.614 396.223 419.764C396.372 419.915 396.575 419.999 396.787 420H585.498C585.711 420 585.915 419.916 586.065 419.765C586.215 419.615 586.299 419.411 586.299 419.199C586.299 418.986 586.215 418.783 586.065 418.632C585.915 418.482 585.711 418.398 585.498 418.398H396.792C396.58 418.397 396.377 418.481 396.226 418.63C396.076 418.779 395.991 418.982 395.991 419.194V419.199Z" fill="#CCCCCC"/>
<path d="M506.525 99.2834C518.079 99.2834 527.446 89.9168 527.446 78.3624C527.446 66.8081 518.079 57.4414 506.525 57.4414C494.971 57.4414 485.604 66.8081 485.604 78.3624C485.604 89.9168 494.971 99.2834 506.525 99.2834Z" fill="#FFB8B8"/>
<path d="M504.521 99.6221C507.761 99.589 510.992 99.2792 514.179 98.6961C517.335 97.9691 524.297 92.5858 526.194 89.4055C527.604 87.0426 528.45 83.3878 528.911 80.738C529.535 77.2311 529.415 73.6325 528.559 70.175C527.703 66.7176 526.13 63.4784 523.943 60.6673C523.1 59.4897 521.954 58.5618 520.627 57.9818C520.51 57.9394 520.389 57.9022 520.267 57.8709C518.344 57.4174 516.599 56.3993 515.258 54.9473C514.998 54.6533 514.717 54.3785 514.417 54.1249C512.912 52.9205 511.144 52.0891 509.257 51.6988C506.208 50.9666 501.847 51.8841 496.295 54.4282C493.505 55.7065 490.409 55.3499 488.023 54.8964C487.889 54.8741 487.752 54.8872 487.625 54.9345C487.498 54.9818 487.385 55.0615 487.298 55.1657C486.313 56.1396 484.996 56.7045 483.611 56.7469C482.764 56.8061 481.905 58.0035 480.868 59.5627C480.633 59.9167 480.359 60.3298 480.16 60.5818L480.12 60.1084L479.654 60.6497C478.921 61.5005 478.416 62.5228 478.185 63.6215C477.953 64.7203 478.004 65.8596 478.332 66.9335C478.659 68.0074 479.253 68.981 480.059 69.7635C480.864 70.546 481.854 71.112 482.937 71.4088C483.796 71.6137 484.674 71.7305 485.556 71.7571C486.092 71.7914 486.645 71.8268 487.177 71.905C488.885 72.209 490.484 72.9506 491.82 74.0575C493.155 75.1643 494.181 76.5986 494.797 78.2202C494.942 78.5949 495.172 78.9313 495.468 79.2032C495.764 79.4752 496.118 79.6755 496.504 79.7886C496.89 79.9018 497.296 79.9248 497.692 79.8559C498.088 79.787 498.463 79.628 498.788 79.3912C499.328 78.9477 499.968 78.6413 500.652 78.4984C501.337 78.3555 502.045 78.3801 502.718 78.5703C503.303 78.8761 503.765 79.3737 504.027 79.9797C504.343 80.6542 504.853 81.2191 505.492 81.6025C507.67 82.6552 507.945 87.5611 507.279 91.6738C506.636 95.6381 505.239 98.53 503.881 98.7063C502.835 98.8418 502.717 98.9194 502.646 99.1068L502.582 99.2745L502.704 99.4268C503.288 99.6218 503.908 99.6884 504.521 99.6221Z" fill="#2F2E41"/>
<path d="M318.6 200.2C341.575 200.2 360.2 181.575 360.2 158.6C360.2 135.625 341.575 117 318.6 117C295.625 117 277 135.625 277 158.6C277 181.575 295.625 200.2 318.6 200.2Z" fill="#48438C"/>
<path d="M499.702 159.668L485.98 150.892C477.242 156.936 465.433 178.228 465.433 178.228L435.546 205.84C434.301 206.053 433.134 206.591 432.163 207.399C431.192 208.207 430.45 209.257 430.014 210.442C429.577 211.627 429.461 212.907 429.676 214.152C429.891 215.397 430.43 216.563 431.239 217.533C432.048 218.503 433.099 219.243 434.285 219.678C435.471 220.113 436.75 220.228 437.995 220.012C439.24 219.795 440.405 219.255 441.374 218.444C442.344 217.634 443.082 216.583 443.516 215.396L485.169 186.379L499.702 159.668Z" fill="#FFB8B8"/>
<path d="M498.394 163.229L507.533 141.294L504.228 129.173C503.57 126.795 502.26 124.649 500.447 122.977C498.634 121.305 496.389 120.173 493.967 119.71C490.678 119.104 487.282 119.769 484.466 121.571C481.649 123.373 479.622 126.178 478.794 129.417C476.291 139.244 474.369 152.019 479.424 157.075L479.476 157.126L498.394 163.229Z" fill="#3F3D56"/>
<path d="M28.6523 407.308C10.7626 398.126 -2.21681 380.381 0.496796 361.419C16.3727 375.129 38.3232 383.201 61.2301 383.75C70.1521 383.964 80.1706 383.374 86.4938 388.584C90.4283 391.826 92.0908 396.829 92.1645 401.765C92.238 406.701 90.885 411.651 89.5409 416.537L89.8652 417.715C68.497 418.397 46.542 416.491 28.6523 407.308Z" fill="#63BE63"/>
<path d="M0.945501 361.386C7.53555 375.315 19.3523 387.125 34.2761 394.292C37.5434 395.944 41.0416 397.094 44.6522 397.701C48.333 398.204 52.0804 397.835 55.592 396.623C58.9189 395.546 62.2102 394.112 65.7137 393.755C67.4293 393.571 69.1645 393.734 70.8154 394.236C72.4664 394.738 73.9991 395.567 75.3221 396.675C78.4662 399.284 80.2791 402.814 81.9119 406.33C83.7248 410.234 85.5357 414.319 89.2411 417.058C89.69 417.39 89.0298 418.029 88.5816 417.698C82.135 412.933 81.445 404.664 76.3826 398.98C74.0204 396.328 70.6876 394.354 66.6067 394.525C63.038 394.675 59.6428 396.151 56.2827 397.266C52.8633 398.493 49.2208 398.972 45.6004 398.673C41.9548 398.235 38.4037 397.211 35.0845 395.641C27.8629 392.363 21.222 387.933 15.4216 382.524C9.01127 376.615 3.78915 369.536 0.0362239 361.666C-0.191417 361.185 0.719342 360.908 0.945501 361.386Z" fill="white"/>
<path d="M29.2671 392.2C25.3453 396.673 18.443 398.185 13.1487 395.757C12.6271 395.518 13.0833 394.757 13.6056 394.996C16.139 396.077 18.9475 396.337 21.636 395.738C24.3245 395.14 26.7578 393.714 28.5938 391.66C28.9796 391.22 29.6507 391.762 29.2671 392.2Z" fill="white"/>
<path d="M53.9696 397.361C53.7026 394.672 52.8694 392.071 51.5246 389.727C50.1798 387.384 48.3541 385.352 46.1675 383.766C45.72 383.432 46.38 382.792 46.827 383.125C49.0988 384.781 50.9939 386.899 52.3875 389.341C53.7811 391.782 54.6415 394.491 54.912 397.289C54.9602 397.822 54.0175 397.891 53.9696 397.361Z" fill="white"/>
<path d="M10.1081 376.067C11.0028 375.424 11.7183 374.562 12.1866 373.565C12.655 372.567 12.8607 371.466 12.7843 370.367C12.7285 369.835 13.6713 369.767 13.7268 370.296C13.8057 371.51 13.5772 372.725 13.0624 373.828C12.5477 374.931 11.7632 375.887 10.7815 376.606C10.6924 376.689 10.5781 376.739 10.4571 376.748C10.3361 376.757 10.2155 376.725 10.1151 376.657C10.0717 376.621 10.0366 376.577 10.0123 376.526C9.98799 376.475 9.97505 376.42 9.97439 376.364C9.97373 376.308 9.98536 376.252 10.0085 376.201C10.0316 376.149 10.0656 376.104 10.1081 376.067Z" fill="white"/>
<path d="M61.6962 323.084C61.7418 323.414 61.7873 323.745 61.8399 324.078C62.4773 328.51 63.5276 332.873 64.977 337.109C65.083 337.439 65.1962 337.771 65.3129 338.096C68.9926 348.359 74.7855 357.735 82.3171 365.618C85.3851 368.839 88.7103 371.804 92.2598 374.484C97.2074 378.226 102.938 381.91 105.988 386.837C106.311 387.345 106.599 387.876 106.848 388.425L91.4929 417.163C91.4223 417.215 91.3586 417.27 91.2878 417.323L90.7319 418.491C90.5351 418.364 90.3345 418.228 90.1377 418.1C90.0232 418.027 89.9121 417.947 89.7976 417.873C89.7224 417.822 89.6472 417.771 89.5757 417.729C89.5506 417.712 89.5256 417.695 89.5076 417.68C89.4361 417.638 89.3752 417.592 89.3108 417.553C88.1867 416.794 87.0672 416.027 85.9523 415.251C85.9451 415.248 85.9452 415.248 85.9414 415.239C77.4655 409.305 69.5278 402.652 63.0735 395.061C62.8794 394.832 62.678 394.602 62.4909 394.36C59.6232 390.95 57.0743 387.284 54.8761 383.408C53.6923 381.301 52.6314 379.127 51.6988 376.897C49.3065 371.137 47.9756 364.991 47.7705 358.758C47.3505 346.27 51.4556 333.502 60.9622 323.818C61.2056 323.57 61.4456 323.329 61.6962 323.084Z" fill="#63BE63"/>
<path d="M62.0589 323.294C57.5509 338.58 58.4205 354.88 64.7874 368.928C66.1054 372.044 67.9666 374.902 70.2841 377.367C72.7733 379.798 75.8738 381.51 79.257 382.322C82.4943 383.198 85.9485 383.752 88.8299 385.329C90.244 386.094 91.4569 387.183 92.3696 388.506C93.2823 389.83 93.8687 391.351 94.081 392.944C94.675 396.831 93.6401 400.782 92.4792 404.624C91.1902 408.889 89.7765 413.307 90.705 417.604C90.8175 418.125 89.8853 418.311 89.773 417.791C88.1576 410.314 93.2602 402.968 93.3123 395.458C93.3366 391.954 92.169 388.501 88.979 386.458C86.1895 384.671 82.6283 384.096 79.3396 383.235C76.0134 382.479 72.9228 380.921 70.3377 378.695C67.8819 376.36 65.8935 373.579 64.4789 370.5C61.2279 363.711 59.2322 356.39 58.5884 348.891C57.8064 340.188 58.687 331.417 61.1833 323.044C61.339 322.516 62.2136 322.77 62.0589 323.294Z" fill="white"/>
<path d="M62.4376 364.477C56.4425 366.148 50.2155 363.724 47.879 358.837C47.6488 358.356 48.5098 357.958 48.7402 358.44C50.9292 363.018 56.6929 365.224 62.297 363.661C62.8868 363.497 63.024 364.313 62.4376 364.477Z" fill="white"/>
<path d="M77.5332 382.075C79.1257 379.83 80.2454 377.285 80.8243 374.594C81.4032 371.903 81.4293 369.123 80.9009 366.422C80.7906 365.9 81.7226 365.715 81.8329 366.235C82.3766 369.048 82.343 371.942 81.7343 374.741C81.1255 377.541 79.9542 380.187 78.2916 382.52C77.9653 382.996 77.2087 382.548 77.5332 382.075Z" fill="white"/>
<path d="M58.977 340.594C60.1467 340.499 61.2811 340.148 62.2994 339.564C63.3178 338.981 64.1949 338.18 64.8685 337.219C65.1881 336.741 65.9444 337.189 65.6269 337.664C64.8783 338.723 63.9084 339.607 62.7844 340.253C61.6604 340.9 60.4092 341.295 59.1176 341.41C58.8611 341.432 58.6255 341.335 58.5813 341.095C58.5708 340.977 58.6059 340.859 58.6795 340.766C58.7531 340.673 58.8595 340.611 58.977 340.594Z" fill="white"/>
<path d="M115.817 179.051L117.164 191.55L116.371 207.939L152.675 203.626L156.086 179.051L151.739 179.093L115.817 179.051Z" fill="#FFB6B6"/>
<path d="M96.987 405.976H104.924L108.702 375.361H96.987V405.976Z" fill="#FFB6B6"/>
<path d="M94.3967 400.539L107.077 399.782V405.215L119.133 413.541C119.728 413.952 120.177 414.543 120.413 415.227C120.648 415.911 120.66 416.653 120.444 417.344C120.229 418.034 119.798 418.638 119.215 419.067C118.633 419.496 117.928 419.727 117.204 419.727H102.108L99.5058 414.353L98.4898 419.727H92.7979L94.3967 400.539Z" fill="#2F2E41"/>
<path d="M141.571 405.976H149.508L153.285 375.361H141.571V405.976Z" fill="#FFB6B6"/>
<path d="M138.98 400.539L151.66 399.782V405.215L163.716 413.541C164.312 413.952 164.76 414.543 164.996 415.227C165.232 415.911 165.243 416.653 165.028 417.344C164.812 418.034 164.382 418.638 163.799 419.067C163.216 419.496 162.511 419.727 161.788 419.727H146.691L144.089 414.353L143.073 419.727H137.381L138.98 400.539Z" fill="#2F2E41"/>
<path d="M93.5625 379.575H93.6488L95.1752 329.798C94.1874 327.892 93.6861 325.772 93.7159 323.626C93.7457 321.48 94.3057 319.375 95.346 317.497L95.5646 317.102L94.9979 314.475C94.2701 311.101 94.6041 307.583 95.954 304.406L97.378 257.973C92.2906 225.002 116.536 203.499 116.536 203.499H152.856L160.653 230.29C165.808 280.511 164.873 329.45 156.693 376.864L156.916 376.977C157.719 377.254 158.063 378.366 157.685 379.461C157.307 380.556 156.35 381.219 155.547 380.942L136.366 380.275C135.563 379.998 135.218 378.886 135.596 377.79C135.974 376.695 136.932 376.032 137.735 376.31L139.039 376.969L136.257 328.936L136.566 320.162L135.93 310.209L132.99 265.438L121.861 320.493L110.494 380.129C110.807 380.413 111.028 380.785 111.125 381.197C111.223 381.608 111.193 382.04 111.04 382.434C110.888 382.829 110.619 383.168 110.27 383.406C109.92 383.645 109.507 383.771 109.084 383.77H93.5625C93.2867 383.771 93.0136 383.717 92.7586 383.612C92.5037 383.506 92.2721 383.352 92.0769 383.157C91.8817 382.962 91.7269 382.731 91.6212 382.476C91.5156 382.221 91.4612 381.948 91.4612 381.673C91.4612 381.397 91.5156 381.124 91.6212 380.869C91.7269 380.614 91.8817 380.383 92.0769 380.188C92.2721 379.993 92.5037 379.839 92.7586 379.734C93.0136 379.628 93.2867 379.575 93.5625 379.575Z" fill="#2F2E41"/>
<path d="M122.156 115.091C132.915 115.091 141.637 106.369 141.637 95.6104C141.637 84.8514 132.915 76.1295 122.156 76.1295C111.397 76.1295 102.675 84.8514 102.675 95.6104C102.675 106.369 111.397 115.091 122.156 115.091Z" fill="#FFB6B6"/>
<path d="M36.7916 185.611C39.5295 179.255 43.2892 173.39 47.9217 168.248C43.9989 174.5 41.7571 181.659 41.4132 189.031C42.8334 189.919 44.3194 190.696 45.8582 191.356C50.4826 193.296 55.4131 194.404 60.4228 194.628C63.1229 185.633 67.7833 177.347 74.0687 170.368C69.5389 177.592 67.261 186 67.5248 194.522C73.1125 194.039 78.6178 192.859 83.9127 191.01C91.8628 188.275 99.5797 184.191 105.078 177.838C111.028 170.962 113.961 161.888 114.908 152.843C115.854 143.804 114.964 134.681 114.067 125.636C113.643 121.325 117.232 116.364 116.808 112.053H116.526C114.639 109.467 112.717 106.817 111.791 103.75C110.872 100.69 111.113 97.0787 113.226 94.6689C114.409 93.4098 115.903 92.4838 117.558 91.9836C117.713 91.7857 117.883 91.5949 118.059 91.4041C121.259 88.0054 125.025 85.1886 129.189 83.0794C126.186 85.3478 124.179 87.9131 123.246 90.5631C125.847 89.9907 128.447 89.4207 131.048 88.853C131.917 87.9311 132.832 87.0537 133.79 86.2242C135.182 85.0157 135.641 84.9239 137.302 83.7861C135.961 84.9656 134.922 86.4484 134.27 88.111C137.613 87.27 140.956 86.0051 142.694 83.1289C145.577 78.3729 142.15 71.9563 137.366 69.1155C133.886 67.1496 129.876 66.3272 125.902 66.7647C121.929 67.2022 118.194 68.8774 115.226 71.5535C108.307 66.4584 98.4561 66.5432 90.7604 70.3522C85.6798 72.9793 81.3033 76.7864 77.9978 81.4541C79.9152 81.208 81.8454 81.0735 83.7784 81.0513C81.0573 81.4495 78.4662 82.4753 76.2099 84.0476C75.2117 85.5974 74.2965 87.1991 73.468 88.8459C72.9239 89.9271 72.4104 91.0225 71.9274 92.1319C68.9665 98.8736 67.0373 106.053 65.0374 113.148C62.7053 121.417 60.2037 129.741 55.8364 137.14C49.1403 148.391 38.5773 156.819 26.1207 160.849C25.0819 170.199 29.647 179.343 36.7916 185.611Z" fill="#2F2E41"/>
<path d="M141.774 128.119L137.993 126.699L133.225 118.99L116.242 120.378L112.114 128.644L102.17 136.238L106.519 159.141L113.275 186.961L158.502 181.307L158.455 160.365C158.455 160.365 166.627 143.819 153.426 137.619L141.774 128.119Z" fill="#F97EF4"/>
<path d="M211.487 200.763C210.609 201.115 209.664 201.271 208.72 201.219C207.775 201.167 206.853 200.908 206.02 200.461C205.186 200.015 204.46 199.39 203.893 198.633C203.327 197.875 202.933 197.002 202.741 196.076L152.312 165.562L161.53 154.927L208.201 188.266C209.778 188.045 211.382 188.411 212.708 189.293C214.034 190.176 214.99 191.514 215.395 193.055C215.8 194.595 215.626 196.231 214.906 197.651C214.185 199.072 212.969 200.179 211.487 200.763Z" fill="#FFB6B6"/>
<path d="M135.509 151.093C135.509 151.093 133.099 153.517 139.146 157.504C143.987 160.696 165.581 176.47 173.235 178.965C173.139 180.089 173.42 181.214 174.034 182.161C174.647 183.108 175.558 183.824 176.624 184.196L183.554 168.966C182.054 165.484 179.655 166.29 178.392 167.08L170.021 160.785L149.467 140.26L137.22 149.309L135.509 151.093Z" fill="#F97EF4"/>
<path d="M115.349 72.0835C113.008 75.5387 111.495 79.4877 110.929 83.623C110.363 87.7583 110.758 91.9685 112.085 95.9259" fill="#FD6584"/>
<path d="M16.5156 419.199C16.5153 419.304 16.5358 419.408 16.576 419.506C16.6161 419.603 16.6751 419.692 16.7496 419.766C16.8241 419.841 16.9125 419.9 17.0099 419.94C17.1072 419.98 17.2115 420 17.3168 420H206.023C206.236 420 206.44 419.916 206.59 419.765C206.74 419.615 206.824 419.411 206.824 419.199C206.824 418.986 206.74 418.783 206.59 418.632C206.44 418.482 206.236 418.398 206.023 418.398H17.3168C17.2115 418.397 17.1072 418.418 17.0099 418.458C16.9125 418.498 16.8241 418.557 16.7496 418.632C16.6751 418.706 16.6161 418.795 16.576 418.892C16.5358 418.989 16.5153 419.094 16.5156 419.199Z" fill="#CCCCCC"/>
<path d="M88.413 237.101C87.9427 237.267 87.5574 237.612 87.3414 238.062C87.1255 238.511 87.0966 239.028 87.261 239.498L113.552 315.273C113.717 315.744 114.063 316.129 114.512 316.345C114.962 316.561 115.478 316.59 115.949 316.425L268.926 262.752C269.396 262.587 269.782 262.241 269.998 261.792C270.213 261.342 270.242 260.826 270.078 260.355L243.787 184.58C243.621 184.11 243.276 183.724 242.826 183.508C242.377 183.292 241.86 183.263 241.389 183.428L88.413 237.101Z" fill="#E6E6E6"/>
<path d="M127.133 305.489C124.123 305.488 121.186 304.555 118.728 302.818C116.269 301.081 114.408 298.625 113.402 295.788L98.9635 254.937C97.6776 251.299 97.8896 247.299 99.5529 243.817C101.216 240.335 104.195 237.656 107.833 236.37L185.149 209.044C199.622 203.946 215.526 204.798 229.372 211.412C243.217 218.026 253.874 229.863 259.004 244.324C260.29 247.963 260.078 251.963 258.414 255.445C256.751 258.927 253.773 261.605 250.134 262.891L131.968 304.657C130.416 305.207 128.781 305.488 127.133 305.489Z" fill="white"/>
<path d="M229.663 224.964L160.434 249.254C159.458 249.596 158.249 248.682 157.734 247.211C157.218 245.741 157.59 244.272 158.566 243.93L227.795 219.64C228.771 219.298 229.98 220.212 230.495 221.682C231.011 223.153 230.639 224.623 229.663 224.964Z" fill="#E6E6E6"/>
<path d="M235.018 240.226L165.788 264.516C164.813 264.858 163.604 263.944 163.088 262.474C162.572 261.003 162.945 259.534 163.92 259.192L233.15 234.902C234.125 234.56 235.334 235.475 235.85 236.945C236.366 238.415 235.993 239.884 235.018 240.226Z" fill="#E6E6E6"/>
<path d="M151.066 257.558C151.81 259.652 152.171 261.864 152.133 264.086C152.118 265.103 152.017 266.117 151.832 267.117C151.242 270.348 149.809 273.366 147.679 275.866C145.548 278.365 142.795 280.258 139.698 281.352C136.602 282.447 133.271 282.704 130.043 282.099C126.815 281.493 123.804 280.046 121.314 277.903C121.063 277.688 120.818 277.466 120.58 277.237C118.547 275.289 116.981 272.905 116.001 270.266C115.021 267.626 114.651 264.798 114.919 261.995C115.187 259.192 116.087 256.486 117.551 254.081C119.014 251.675 121.003 249.632 123.369 248.104C125.735 246.577 128.416 245.606 131.211 245.263C134.006 244.919 136.842 245.214 139.507 246.123C142.172 247.033 144.596 248.534 146.598 250.514C148.6 252.495 150.128 254.903 151.066 257.558Z" fill="#E4E4E4"/>
<path d="M134.26 266.62C136.229 266.62 137.825 265.024 137.825 263.055C137.825 261.086 136.229 259.49 134.26 259.49C132.291 259.49 130.695 261.086 130.695 263.055C130.695 265.024 132.291 266.62 134.26 266.62Z" fill="#FD6584"/>
<path d="M120.58 277.237C121.495 275.113 122.577 271.873 125.083 273.052C126.321 273.589 128.538 275.22 129.438 273.323L136.486 258.568C136.62 258.293 136.807 258.047 137.037 257.846C137.267 257.644 137.535 257.49 137.825 257.393C138.115 257.296 138.422 257.259 138.727 257.282C139.032 257.306 139.329 257.39 139.601 257.53L152.133 264.086C152.118 265.103 152.017 266.117 151.832 267.117L121.314 277.903L120.58 277.237Z" fill="#3F3D56"/>
<path d="M124.218 233.663C123.336 233.32 122.54 232.788 121.886 232.104C121.232 231.42 120.736 230.602 120.433 229.706C120.13 228.809 120.027 227.858 120.131 226.917C120.235 225.977 120.545 225.071 121.037 224.263L105.084 167.522L119.081 166.059L130.361 222.294C131.663 223.211 132.584 224.574 132.948 226.125C133.313 227.675 133.096 229.306 132.339 230.707C131.582 232.108 130.337 233.183 128.84 233.728C127.343 234.273 125.699 234.249 124.218 233.663Z" fill="#FFB6B6"/>
<path d="M102.723 136.374C102.723 136.374 99.307 136.497 100.996 143.54C102.348 149.179 107.313 184.553 111.195 191.606C110.356 192.361 109.793 193.374 109.594 194.485C109.394 195.595 109.57 196.741 110.093 197.741L125.562 191.36C126.847 187.793 125.852 184.555 124.391 184.268L122.583 173.952L119.92 139.344L105.191 136.242L102.723 136.374Z" fill="#F97EF4"/>
<path d="M242.073 285.668L220.68 286.554C220.223 286.574 219.767 286.49 219.347 286.308C218.927 286.127 218.554 285.853 218.255 285.507C217.959 285.17 217.744 284.77 217.626 284.338C217.507 283.905 217.488 283.452 217.57 283.011C219.212 274.059 218.733 264.847 216.173 256.113C215.975 255.445 216.015 254.729 216.286 254.088C216.557 253.446 217.043 252.918 217.659 252.594C226.422 248.041 234.633 247.811 242.062 251.907C242.451 252.119 242.79 252.413 243.054 252.768C243.318 253.124 243.501 253.533 243.591 253.967C245.525 263.498 245.989 273.268 244.966 282.939C244.895 283.667 244.563 284.344 244.031 284.846C243.499 285.347 242.804 285.639 242.073 285.668Z" fill="#FF636C"/>
<path d="M241.168 271.666L224.81 272.343C224.608 272.352 224.407 272.32 224.218 272.251C224.028 272.182 223.854 272.076 223.706 271.939C223.557 271.802 223.437 271.638 223.352 271.455C223.267 271.272 223.219 271.074 223.211 270.872C223.202 270.671 223.234 270.469 223.303 270.28C223.373 270.09 223.479 269.917 223.616 269.768C223.752 269.62 223.917 269.5 224.1 269.415C224.283 269.33 224.481 269.282 224.683 269.274L241.041 268.597C241.242 268.588 241.444 268.62 241.633 268.689C241.822 268.759 241.996 268.865 242.144 269.001C242.293 269.138 242.413 269.302 242.498 269.485C242.583 269.668 242.63 269.866 242.639 270.068C242.647 270.269 242.616 270.47 242.546 270.66C242.477 270.849 242.371 271.023 242.234 271.171C242.098 271.32 241.933 271.44 241.75 271.524C241.567 271.609 241.369 271.657 241.168 271.666Z" fill="white"/>
<path d="M240.945 266.284L224.587 266.962C224.18 266.979 223.783 266.833 223.484 266.557C223.184 266.281 223.006 265.898 222.989 265.491C222.972 265.084 223.118 264.687 223.394 264.387C223.67 264.087 224.053 263.91 224.46 263.893L240.818 263.215C241.225 263.198 241.622 263.344 241.922 263.62C242.221 263.896 242.399 264.279 242.416 264.686C242.433 265.093 242.287 265.49 242.011 265.79C241.736 266.089 241.352 266.267 240.945 266.284Z" fill="white"/>
<path d="M570.858 118.315L549.628 115.531C549.174 115.472 548.74 115.312 548.357 115.061C547.974 114.811 547.653 114.477 547.418 114.085C547.184 113.702 547.041 113.271 546.998 112.825C546.955 112.379 547.014 111.929 547.17 111.509C550.318 102.969 551.421 93.8105 550.392 84.7675C550.311 84.0756 550.473 83.3772 550.85 82.7913C551.227 82.2054 551.795 81.7683 552.458 81.5545C561.87 78.567 569.999 79.7433 576.619 85.0497C576.966 85.3247 577.25 85.6722 577.449 86.0679C577.648 86.4636 577.759 86.8981 577.773 87.341C578.049 97.0618 576.836 106.768 574.175 116.121C573.981 116.826 573.538 117.437 572.928 117.84C572.318 118.243 571.583 118.412 570.858 118.315Z" fill="#FFB763"/>
<path d="M572.36 104.364L556.128 102.235C555.928 102.209 555.735 102.144 555.56 102.043C555.385 101.942 555.232 101.808 555.109 101.648C554.986 101.488 554.896 101.305 554.844 101.111C554.792 100.916 554.778 100.713 554.805 100.513C554.831 100.313 554.896 100.12 554.997 99.9453C555.098 99.7706 555.232 99.6174 555.392 99.4946C555.552 99.3717 555.734 99.2816 555.929 99.2293C556.124 99.177 556.327 99.1636 556.527 99.1898L572.76 101.319C573.164 101.372 573.53 101.583 573.778 101.906C574.026 102.229 574.136 102.637 574.083 103.041C574.03 103.445 573.819 103.811 573.496 104.06C573.173 104.308 572.764 104.417 572.36 104.364Z" fill="white"/>
<path d="M573.061 99.0239L556.828 96.8948C556.627 96.8689 556.434 96.8038 556.259 96.7032C556.084 96.6026 555.931 96.4684 555.807 96.3084C555.684 96.1484 555.594 95.9656 555.542 95.7706C555.489 95.5756 555.476 95.3722 555.502 95.172C555.528 94.9718 555.594 94.7787 555.695 94.6038C555.795 94.4289 555.93 94.2757 556.09 94.1529C556.25 94.03 556.433 93.94 556.629 93.8879C556.824 93.8358 557.027 93.8227 557.227 93.8494L573.46 95.9784C573.66 96.0043 573.854 96.0694 574.029 96.17C574.204 96.2707 574.357 96.4048 574.48 96.5649C574.603 96.7249 574.694 96.9076 574.746 97.1026C574.799 97.2976 574.812 97.501 574.786 97.7013C574.76 97.9015 574.694 98.0945 574.593 98.2694C574.492 98.4443 574.358 98.5976 574.198 98.7204C574.037 98.8433 573.854 98.9333 573.659 98.9854C573.464 99.0374 573.261 99.0505 573.061 99.0239Z" fill="white"/>
<path d="M332.326 153.465H325.257V146.396C325.257 144.7 324.583 143.073 323.384 141.873C322.184 140.674 320.557 140 318.861 140C317.165 140 315.538 140.674 314.338 141.873C313.139 143.073 312.465 144.7 312.465 146.396V153.465H305.396C303.7 153.465 302.073 154.139 300.873 155.338C299.674 156.538 299 158.165 299 159.861C299 161.557 299.674 163.184 300.873 164.384C302.073 165.583 303.7 166.257 305.396 166.257H312.465V173.326C312.465 175.022 313.139 176.649 314.338 177.849C315.538 179.048 317.165 179.722 318.861 179.722C320.557 179.722 322.184 179.048 323.384 177.849C324.583 176.649 325.257 175.022 325.257 173.326V166.257H332.326C334.022 166.257 335.649 165.583 336.849 164.384C338.048 163.184 338.722 161.557 338.722 159.861C338.722 158.165 338.048 156.538 336.849 155.338C335.649 154.139 334.022 153.465 332.326 153.465Z" fill="white"/>
<path d="M516.995 28.6368C520.717 28.6368 523.735 25.619 523.735 21.8965C523.735 18.174 520.717 15.1562 516.995 15.1562C513.272 15.1562 510.254 18.174 510.254 21.8965C510.254 25.619 513.272 28.6368 516.995 28.6368Z" fill="#3F3D56"/>
<path d="M165.425 219.168C169.147 219.168 172.165 216.15 172.165 212.427C172.165 208.705 169.147 205.687 165.425 205.687C161.702 205.687 158.685 208.705 158.685 212.427C158.685 216.15 161.702 219.168 165.425 219.168Z" fill="#3F3D56"/>
</g>
<defs>
<clipPath id="clip0_167_205">
<rect width="666.058" height="420" fill="white"/>
</clipPath>
</defs>
</svg>
