<svg width="555" height="480" viewBox="0 0 555 480" fill="none" xmlns="http://www.w3.org/2000/svg">
<g clip-path="url(#clip0_167_471)">
<path d="M438.018 39.6382C437.394 39.2227 436.764 38.8286 436.14 38.4273C418.12 26.9025 398.806 17.5399 378.596 10.5329L373.91 75.178H344.203V1.09628C342.333 0.70936 340.448 0.343933 338.564 0V75.178H303.26C283.826 75.178 265.187 67.4575 251.444 53.715C237.702 39.9725 229.981 21.3337 229.981 1.89887C228.09 2.30729 226.212 2.7443 224.335 3.21005V75.178H195.581L191.117 13.5352C170.348 21.5003 150.631 31.9748 132.405 44.7256C132.089 44.9405 131.774 45.1627 131.466 45.3776C129.883 46.4882 128.32 47.6204 126.766 48.7668V295.388H211.509L210.012 274.645L201.772 160.753H367.712L359.472 274.645L357.974 295.388H441.779V42.1318C440.533 41.2863 439.279 40.4551 438.018 39.6382ZM224.335 141.944H200.41L195.989 80.8242H224.335V141.944ZM338.564 141.944H298.381V140.733C298.381 140.151 298.266 139.574 298.043 139.037C297.82 138.499 297.493 138.011 297.081 137.599C296.67 137.188 296.181 136.862 295.642 136.64C295.104 136.418 294.528 136.304 293.946 136.305H276.477C275.895 136.305 275.319 136.419 274.782 136.641C274.245 136.864 273.756 137.19 273.345 137.601C272.934 138.013 272.608 138.501 272.385 139.038C272.163 139.575 272.048 140.151 272.049 140.733V141.944H229.981V80.8242H338.564V141.944ZM344.203 141.944V80.8242H373.502L369.081 141.944H344.203Z" fill="#F2F2F2"/>
<path d="M530.05 448.223L530.61 435.629C536.449 432.508 542.962 430.859 549.582 430.826C540.47 438.276 541.609 452.636 535.431 462.654C533.481 465.764 530.855 468.395 527.75 470.352C524.644 472.309 521.138 473.542 517.491 473.96L509.866 478.628C508.819 472.795 509.05 466.805 510.542 461.07C512.034 455.335 514.751 449.991 518.507 445.407C520.639 442.857 523.084 440.585 525.784 438.645C527.611 443.461 530.05 448.223 530.05 448.223Z" fill="#F2F2F2"/>
<path d="M515.732 476.569C515.729 476.95 515.577 477.315 515.309 477.586C515.176 477.719 515.018 477.824 514.845 477.895C514.672 477.966 514.486 478.003 514.299 478.002H508.538C508.349 478.003 508.163 477.966 507.988 477.894C507.814 477.822 507.656 477.717 507.523 477.584C507.39 477.45 507.284 477.292 507.212 477.118C507.141 476.944 507.104 476.757 507.105 476.569V302.353C507.105 298.512 505.815 295.395 504.231 295.388H72.5313C70.9406 295.395 69.658 298.512 69.6508 302.353V475.501C69.6497 475.857 69.5163 476.2 69.2767 476.464C69.0371 476.727 68.7083 476.892 68.3539 476.927C67.1932 477.042 66.0324 477.142 64.8788 477.235C64.8501 477.235 64.8214 477.242 64.7928 477.242C64.1622 477.3 63.5317 477.343 62.9011 477.393H62.894C62.5644 476.798 62.2491 476.189 61.9267 475.58C61.8233 475.373 61.7694 475.145 61.769 474.914V293.317C61.769 292.257 61.812 291.189 61.8837 290.136C61.9859 288.69 62.1653 287.25 62.4211 285.822C63.632 279.166 66.3691 274.659 69.4789 274.645H507.277C507.73 274.648 508.179 274.743 508.595 274.924C509.206 275.194 509.758 275.581 510.221 276.063C510.85 276.717 511.387 277.452 511.819 278.249C513.353 280.95 514.449 284.977 514.836 289.663C514.836 289.706 514.843 289.749 514.843 289.792C514.943 290.953 514.994 292.135 514.986 293.317L515.087 308.672L515.151 317.83L515.345 346.562L515.416 356.766L515.732 476.569Z" fill="#E6E6E6"/>
<path d="M553.832 479.78L356.25 480C356.024 479.999 355.808 479.909 355.648 479.749C355.489 479.589 355.399 479.373 355.399 479.147C355.399 478.921 355.489 478.704 355.648 478.544C355.808 478.385 356.024 478.294 356.25 478.294L553.832 478.073C554.058 478.074 554.275 478.164 554.434 478.324C554.593 478.484 554.683 478.701 554.683 478.927C554.683 479.152 554.593 479.369 554.434 479.529C554.275 479.689 554.058 479.779 553.832 479.78Z" fill="#CACACA"/>
<path d="M308.585 223.743H273.591C273.096 223.744 272.622 223.941 272.272 224.292C271.923 224.642 271.727 225.117 271.727 225.613V280.893H310.454V225.613C310.454 225.367 310.406 225.124 310.312 224.897C310.218 224.67 310.081 224.464 309.907 224.291C309.734 224.117 309.527 223.979 309.301 223.885C309.074 223.792 308.831 223.743 308.585 223.743ZM291.206 255.153C290.112 255.148 289.064 254.711 288.29 253.937C287.516 253.163 287.079 252.115 287.074 251.021V244.645C287.074 243.549 287.509 242.498 288.284 241.723C289.059 240.948 290.11 240.512 291.206 240.512C292.302 240.512 293.353 240.948 294.128 241.723C294.903 242.498 295.338 243.549 295.338 244.645V251.021C295.333 252.115 294.896 253.163 294.122 253.937C293.348 254.711 292.3 255.148 291.206 255.153Z" fill="#2F2E41"/>
<path d="M366.532 137.473H216.947C215.662 137.475 214.43 137.986 213.521 138.895C212.612 139.804 212.101 141.036 212.099 142.321V243.262C212.1 244.547 212.611 245.779 213.52 246.688C214.429 247.597 215.661 248.108 216.947 248.11H366.532C367.817 248.108 369.05 247.597 369.959 246.688C370.868 245.779 371.379 244.547 371.38 243.262V142.321C371.378 141.036 370.867 139.804 369.958 138.895C369.049 137.986 367.817 137.475 366.532 137.473Z" fill="#3F3D56"/>
<path d="M365.281 140.974H218.194C217.506 140.975 216.846 141.249 216.36 141.736C215.874 142.224 215.601 142.884 215.601 143.572V242.01C215.602 242.698 215.876 243.356 216.362 243.842C216.848 244.328 217.507 244.602 218.194 244.603H365.281C365.968 244.602 366.627 244.328 367.113 243.842C367.599 243.356 367.872 242.698 367.873 242.01V143.572C367.873 142.884 367.6 142.224 367.114 141.736C366.628 141.249 365.969 140.975 365.281 140.974Z" fill="white"/>
<path d="M271.607 279.124V284.458C271.608 284.734 271.718 284.999 271.913 285.194C272.108 285.39 272.373 285.5 272.65 285.5H309.532C309.808 285.499 310.072 285.389 310.268 285.194C310.463 284.998 310.573 284.734 310.574 284.458V279.124H271.607Z" fill="#3F3D56"/>
<path d="M336.633 287.356H249.124C248.885 287.356 248.648 287.303 248.432 287.2C248.216 287.097 248.025 286.947 247.874 286.761C247.723 286.575 247.616 286.357 247.56 286.125C247.503 285.892 247.5 285.649 247.549 285.415L248.907 278.966C248.984 278.605 249.183 278.282 249.469 278.049C249.756 277.817 250.113 277.689 250.482 277.688H335.275C335.644 277.689 336.002 277.817 336.288 278.049C336.575 278.282 336.773 278.605 336.85 278.966L338.208 285.415C338.258 285.649 338.254 285.892 338.198 286.125C338.142 286.357 338.034 286.575 337.883 286.761C337.732 286.947 337.542 287.097 337.325 287.2C337.109 287.303 336.873 287.356 336.633 287.356Z" fill="#2F2E41"/>
<path d="M253.449 278.849H251.453C251.26 278.849 251.104 279.006 251.104 279.199V280.116C251.104 280.31 251.26 280.466 251.453 280.466H253.449C253.642 280.466 253.799 280.31 253.799 280.116V279.199C253.799 279.006 253.642 278.849 253.449 278.849Z" fill="#3F3D56"/>
<path d="M258.84 278.849H256.844C256.651 278.849 256.494 279.006 256.494 279.199V280.116C256.494 280.31 256.651 280.466 256.844 280.466H258.84C259.033 280.466 259.189 280.31 259.189 280.116V279.199C259.189 279.006 259.033 278.849 258.84 278.849Z" fill="#3F3D56"/>
<path d="M264.23 278.849H262.234C262.041 278.849 261.884 279.006 261.884 279.199V280.116C261.884 280.31 262.041 280.466 262.234 280.466H264.23C264.423 280.466 264.579 280.31 264.579 280.116V279.199C264.579 279.006 264.423 278.849 264.23 278.849Z" fill="#3F3D56"/>
<path d="M269.62 278.849H267.625C267.432 278.849 267.275 279.006 267.275 279.199V280.116C267.275 280.31 267.432 280.466 267.625 280.466H269.62C269.813 280.466 269.97 280.31 269.97 280.116V279.199C269.97 279.006 269.813 278.849 269.62 278.849Z" fill="#3F3D56"/>
<path d="M275.01 278.849H273.015C272.822 278.849 272.665 279.006 272.665 279.199V280.116C272.665 280.31 272.822 280.466 273.015 280.466H275.01C275.204 280.466 275.36 280.31 275.36 280.116V279.199C275.36 279.006 275.204 278.849 275.01 278.849Z" fill="#3F3D56"/>
<path d="M280.401 278.849H278.405C278.212 278.849 278.055 279.006 278.055 279.199V280.116C278.055 280.31 278.212 280.466 278.405 280.466H280.401C280.594 280.466 280.75 280.31 280.75 280.116V279.199C280.75 279.006 280.594 278.849 280.401 278.849Z" fill="#3F3D56"/>
<path d="M285.791 278.849H283.796C283.602 278.849 283.446 279.006 283.446 279.199V280.116C283.446 280.31 283.602 280.466 283.796 280.466H285.791C285.984 280.466 286.141 280.31 286.141 280.116V279.199C286.141 279.006 285.984 278.849 285.791 278.849Z" fill="#3F3D56"/>
<path d="M291.181 278.849H289.186C288.993 278.849 288.836 279.006 288.836 279.199V280.116C288.836 280.31 288.993 280.466 289.186 280.466H291.181C291.375 280.466 291.531 280.31 291.531 280.116V279.199C291.531 279.006 291.375 278.849 291.181 278.849Z" fill="#3F3D56"/>
<path d="M296.572 278.849H294.576C294.383 278.849 294.227 279.006 294.227 279.199V280.116C294.227 280.31 294.383 280.466 294.576 280.466H296.572C296.765 280.466 296.922 280.31 296.922 280.116V279.199C296.922 279.006 296.765 278.849 296.572 278.849Z" fill="#3F3D56"/>
<path d="M301.962 278.849H299.967C299.773 278.849 299.617 279.006 299.617 279.199V280.116C299.617 280.31 299.773 280.466 299.967 280.466H301.962C302.155 280.466 302.312 280.31 302.312 280.116V279.199C302.312 279.006 302.155 278.849 301.962 278.849Z" fill="#3F3D56"/>
<path d="M307.353 278.849H305.357C305.164 278.849 305.007 279.006 305.007 279.199V280.116C305.007 280.31 305.164 280.466 305.357 280.466H307.353C307.546 280.466 307.702 280.31 307.702 280.116V279.199C307.702 279.006 307.546 278.849 307.353 278.849Z" fill="#3F3D56"/>
<path d="M312.743 278.849H310.747C310.554 278.849 310.397 279.006 310.397 279.199V280.116C310.397 280.31 310.554 280.466 310.747 280.466H312.743C312.936 280.466 313.093 280.31 313.093 280.116V279.199C313.093 279.006 312.936 278.849 312.743 278.849Z" fill="#3F3D56"/>
<path d="M318.133 278.849H316.138C315.945 278.849 315.788 279.006 315.788 279.199V280.116C315.788 280.31 315.945 280.466 316.138 280.466H318.133C318.327 280.466 318.483 280.31 318.483 280.116V279.199C318.483 279.006 318.327 278.849 318.133 278.849Z" fill="#3F3D56"/>
<path d="M323.524 278.849H321.528C321.335 278.849 321.178 279.006 321.178 279.199V280.116C321.178 280.31 321.335 280.466 321.528 280.466H323.524C323.717 280.466 323.873 280.31 323.873 280.116V279.199C323.873 279.006 323.717 278.849 323.524 278.849Z" fill="#3F3D56"/>
<path d="M328.914 278.849H326.919C326.725 278.849 326.569 279.006 326.569 279.199V280.116C326.569 280.31 326.725 280.466 326.919 280.466H328.914C329.107 280.466 329.264 280.31 329.264 280.116V279.199C329.264 279.006 329.107 278.849 328.914 278.849Z" fill="#3F3D56"/>
<path d="M334.304 278.849H332.309C332.116 278.849 331.959 279.006 331.959 279.199V280.116C331.959 280.31 332.116 280.466 332.309 280.466H334.304C334.498 280.466 334.654 280.31 334.654 280.116V279.199C334.654 279.006 334.498 278.849 334.304 278.849Z" fill="#3F3D56"/>
<path d="M253.385 281.544H251.39C251.197 281.544 251.04 281.701 251.04 281.894V282.812C251.04 283.005 251.197 283.161 251.39 283.161H253.385C253.579 283.161 253.735 283.005 253.735 282.812V281.894C253.735 281.701 253.579 281.544 253.385 281.544Z" fill="#3F3D56"/>
<path d="M258.776 281.544H256.78C256.587 281.544 256.43 281.701 256.43 281.894V282.812C256.43 283.005 256.587 283.161 256.78 283.161H258.776C258.969 283.161 259.125 283.005 259.125 282.812V281.894C259.125 281.701 258.969 281.544 258.776 281.544Z" fill="#3F3D56"/>
<path d="M264.166 281.544H262.171C261.977 281.544 261.821 281.701 261.821 281.894V282.812C261.821 283.005 261.977 283.161 262.171 283.161H264.166C264.359 283.161 264.516 283.005 264.516 282.812V281.894C264.516 281.701 264.359 281.544 264.166 281.544Z" fill="#3F3D56"/>
<path d="M269.556 281.544H267.561C267.368 281.544 267.211 281.701 267.211 281.894V282.812C267.211 283.005 267.368 283.161 267.561 283.161H269.556C269.75 283.161 269.906 283.005 269.906 282.812V281.894C269.906 281.701 269.75 281.544 269.556 281.544Z" fill="#3F3D56"/>
<path d="M274.947 281.544H272.951C272.758 281.544 272.602 281.701 272.602 281.894V282.812C272.602 283.005 272.758 283.161 272.951 283.161H274.947C275.14 283.161 275.297 283.005 275.297 282.812V281.894C275.297 281.701 275.14 281.544 274.947 281.544Z" fill="#3F3D56"/>
<path d="M280.337 281.544H278.342C278.148 281.544 277.992 281.701 277.992 281.894V282.812C277.992 283.005 278.148 283.161 278.342 283.161H280.337C280.53 283.161 280.687 283.005 280.687 282.812V281.894C280.687 281.701 280.53 281.544 280.337 281.544Z" fill="#3F3D56"/>
<path d="M285.727 281.544H283.732C283.538 281.544 283.382 281.701 283.382 281.894V282.812C283.382 283.005 283.538 283.161 283.732 283.161H285.727C285.92 283.161 286.077 283.005 286.077 282.812V281.894C286.077 281.701 285.92 281.544 285.727 281.544Z" fill="#3F3D56"/>
<path d="M291.118 281.544H289.122C288.929 281.544 288.772 281.701 288.772 281.894V282.812C288.772 283.005 288.929 283.161 289.122 283.161H291.118C291.311 283.161 291.468 283.005 291.468 282.812V281.894C291.468 281.701 291.311 281.544 291.118 281.544Z" fill="#3F3D56"/>
<path d="M296.508 281.544H294.512C294.319 281.544 294.163 281.701 294.163 281.894V282.812C294.163 283.005 294.319 283.161 294.512 283.161H296.508C296.701 283.161 296.858 283.005 296.858 282.812V281.894C296.858 281.701 296.701 281.544 296.508 281.544Z" fill="#3F3D56"/>
<path d="M301.899 281.544H299.903C299.71 281.544 299.553 281.701 299.553 281.894V282.812C299.553 283.005 299.71 283.161 299.903 283.161H301.899C302.092 283.161 302.248 283.005 302.248 282.812V281.894C302.248 281.701 302.092 281.544 301.899 281.544Z" fill="#3F3D56"/>
<path d="M307.289 281.544H305.293C305.1 281.544 304.943 281.701 304.943 281.894V282.812C304.943 283.005 305.1 283.161 305.293 283.161H307.289C307.482 283.161 307.639 283.005 307.639 282.812V281.894C307.639 281.701 307.482 281.544 307.289 281.544Z" fill="#3F3D56"/>
<path d="M312.679 281.544H310.684C310.491 281.544 310.334 281.701 310.334 281.894V282.812C310.334 283.005 310.491 283.161 310.684 283.161H312.679C312.873 283.161 313.029 283.005 313.029 282.812V281.894C313.029 281.701 312.873 281.544 312.679 281.544Z" fill="#3F3D56"/>
<path d="M318.069 281.544H316.074C315.881 281.544 315.724 281.701 315.724 281.894V282.812C315.724 283.005 315.881 283.161 316.074 283.161H318.069C318.263 283.161 318.419 283.005 318.419 282.812V281.894C318.419 281.701 318.263 281.544 318.069 281.544Z" fill="#3F3D56"/>
<path d="M323.46 281.544H321.465C321.271 281.544 321.115 281.701 321.115 281.894V282.812C321.115 283.005 321.271 283.161 321.465 283.161H323.46C323.653 283.161 323.81 283.005 323.81 282.812V281.894C323.81 281.701 323.653 281.544 323.46 281.544Z" fill="#3F3D56"/>
<path d="M328.85 281.544H326.855C326.661 281.544 326.505 281.701 326.505 281.894V282.812C326.505 283.005 326.661 283.161 326.855 283.161H328.85C329.043 283.161 329.2 283.005 329.2 282.812V281.894C329.2 281.701 329.043 281.544 328.85 281.544Z" fill="#3F3D56"/>
<path d="M334.241 281.544H332.245C332.052 281.544 331.896 281.701 331.896 281.894V282.812C331.896 283.005 332.052 283.161 332.245 283.161H334.241C334.434 283.161 334.591 283.005 334.591 282.812V281.894C334.591 281.701 334.434 281.544 334.241 281.544Z" fill="#3F3D56"/>
<path d="M298.125 284.779H277.263C277.07 284.779 276.914 284.935 276.914 285.128V286.046C276.914 286.239 277.07 286.396 277.263 286.396H298.125C298.318 286.396 298.475 286.239 298.475 286.046V285.128C298.475 284.935 298.318 284.779 298.125 284.779Z" fill="#3F3D56"/>
<path d="M357.889 154.537H220.261C220.118 154.534 219.981 154.475 219.881 154.373C219.781 154.271 219.725 154.133 219.725 153.99C219.725 153.847 219.781 153.709 219.881 153.607C219.981 153.504 220.118 153.445 220.261 153.443H357.889C358.032 153.445 358.169 153.504 358.269 153.607C358.369 153.709 358.425 153.847 358.425 153.99C358.425 154.133 358.369 154.271 358.269 154.373C358.169 154.475 358.032 154.534 357.889 154.537Z" fill="#CACACA"/>
<path d="M229.629 150.648C231.401 150.648 232.837 149.18 232.837 147.369C232.837 145.558 231.401 144.09 229.629 144.09C227.858 144.09 226.422 145.558 226.422 147.369C226.422 149.18 227.858 150.648 229.629 150.648Z" fill="#3F3D56"/>
<path d="M240.71 150.648C242.481 150.648 243.917 149.18 243.917 147.369C243.917 145.558 242.481 144.09 240.71 144.09C238.938 144.09 237.502 145.558 237.502 147.369C237.502 149.18 238.938 150.648 240.71 150.648Z" fill="#3F3D56"/>
<path d="M251.79 150.648C253.562 150.648 254.998 149.18 254.998 147.369C254.998 145.558 253.562 144.09 251.79 144.09C250.019 144.09 248.583 145.558 248.583 147.369C248.583 149.18 250.019 150.648 251.79 150.648Z" fill="#3F3D56"/>
<path d="M351.218 144.903H343.347C343.191 144.906 343.042 144.97 342.933 145.082C342.824 145.193 342.763 145.343 342.763 145.499C342.763 145.655 342.824 145.805 342.933 145.916C343.042 146.028 343.191 146.092 343.347 146.095H351.218C351.374 146.092 351.522 146.028 351.632 145.916C351.741 145.805 351.802 145.655 351.802 145.499C351.802 145.343 351.741 145.193 351.632 145.082C351.522 144.97 351.374 144.906 351.218 144.903Z" fill="#3F3D56"/>
<path d="M351.218 147.14H343.347C343.191 147.143 343.042 147.207 342.933 147.319C342.824 147.43 342.763 147.58 342.763 147.736C342.763 147.892 342.824 148.042 342.933 148.153C343.042 148.265 343.191 148.329 343.347 148.332H351.218C351.374 148.329 351.522 148.265 351.632 148.153C351.741 148.042 351.802 147.892 351.802 147.736C351.802 147.58 351.741 147.43 351.632 147.319C351.522 147.207 351.374 147.143 351.218 147.14Z" fill="#3F3D56"/>
<path d="M351.218 149.374H343.347C343.191 149.377 343.042 149.441 342.933 149.553C342.824 149.664 342.763 149.814 342.763 149.97C342.763 150.126 342.824 150.276 342.933 150.387C343.042 150.499 343.191 150.563 343.347 150.566H351.218C351.374 150.563 351.522 150.499 351.632 150.387C351.741 150.276 351.802 150.126 351.802 149.97C351.802 149.814 351.741 149.664 351.632 149.553C351.522 149.441 351.374 149.377 351.218 149.374Z" fill="#3F3D56"/>
<path d="M300.069 186.512H282.872C281.58 186.512 280.533 187.559 280.533 188.85V188.85C280.533 190.142 281.58 191.189 282.872 191.189H300.069C301.361 191.189 302.408 190.142 302.408 188.85V188.85C302.408 187.559 301.361 186.512 300.069 186.512Z" fill="#6C63FF"/>
<path d="M311.179 195.867H271.762C270.47 195.867 269.423 196.914 269.423 198.206V198.206C269.423 199.498 270.47 200.545 271.762 200.545H311.179C312.471 200.545 313.518 199.498 313.518 198.206C313.518 196.914 312.471 195.867 311.179 195.867Z" fill="#E6E6E6"/>
<path d="M311.179 205.223H271.762C270.47 205.223 269.423 206.27 269.423 207.561C269.423 208.853 270.47 209.9 271.762 209.9H311.179C312.471 209.9 313.518 208.853 313.518 207.561C313.518 206.27 312.471 205.223 311.179 205.223Z" fill="#E6E6E6"/>
<path d="M221.605 294.392H178.613C177.093 294.392 175.635 294.996 174.56 296.071C173.485 297.146 172.881 298.604 172.881 300.124C172.881 301.645 173.485 303.103 174.56 304.178C175.635 305.253 177.093 305.857 178.613 305.857H194.377V350.281H205.841V305.857H221.605C223.125 305.857 224.583 305.253 225.658 304.178C226.733 303.103 227.337 301.645 227.337 300.124C227.337 298.604 226.733 297.146 225.658 296.071C224.583 294.996 223.125 294.392 221.605 294.392Z" fill="#3F3D56"/>
<path d="M249.98 374.884H134.99C123.842 374.844 113.081 370.794 104.673 363.475C96.264 356.156 90.7692 346.056 89.1919 335.02L85.1216 320.048C76.6967 289.022 63.8641 259.365 47.0158 231.984C39.315 219.478 35.3515 207.372 44.354 195.717C44.4306 195.618 44.506 195.52 44.5801 195.424C51.8007 186.026 87.7397 183.991 99.4556 183.595C99.9185 183.58 100.383 183.572 100.849 183.572H172.372C172.839 183.572 173.304 183.58 173.766 183.595C180.082 183.779 186.23 185.67 191.558 189.066C196.886 192.462 201.196 197.237 204.029 202.885C207.053 208.651 208.459 215.128 208.099 221.628C207.738 228.129 205.625 234.411 201.983 239.807C176.859 277.547 169.167 301.212 177.042 316.537C184.66 331.36 208.01 338.939 250.528 340.386C261.954 340.775 267.198 349.672 267.234 357.774C267.27 365.666 262.229 374.38 251.075 374.861C250.712 374.877 250.347 374.884 249.98 374.884Z" fill="#3F3D56"/>
<path d="M151.091 187.162L151.992 192.639C152.418 195.294 153.962 214.053 152.818 216.291C152.718 212.112 144.937 205.543 139.895 207.043L131.983 208.801L127.072 209.893L123.075 210.77L111.461 213.307C111.441 213.172 111.426 213.029 111.406 212.894C111.378 212.724 111.351 212.554 111.316 212.386C111.1 211.297 110.706 210.251 110.149 209.29C110.09 210.577 109.71 211.829 109.044 212.931C109.026 212.96 109.01 212.99 108.996 213.022C108.79 213.355 108.563 213.676 108.315 213.98C108.303 213.988 108.293 213.998 108.284 214.008C108.284 214.008 105.898 175.968 106.148 175.617C106.331 175.367 106.515 175.125 106.708 174.888C106.899 174.644 107.085 174.408 107.285 174.17C107.311 174.147 107.333 174.121 107.349 174.091C107.909 173.429 108.502 172.795 109.126 172.192C109.309 172.015 109.499 171.837 109.69 171.659C112.595 168.971 116.067 166.969 119.849 165.8C120.275 165.668 120.719 165.548 121.169 165.427C121.614 165.314 122.068 165.206 122.524 165.113L122.679 165.082C122.896 165.037 123.122 164.998 123.341 164.961C123.616 164.912 123.893 164.87 124.164 164.836C127.683 164.329 131.268 164.531 134.708 165.429C134.715 165.427 134.716 165.434 134.723 165.433C137.594 166.183 140.324 167.399 142.802 169.031C147.09 171.862 148.758 176.479 149.943 181.663C150.359 183.443 150.709 185.295 151.091 187.162Z" fill="#2F2E41"/>
<path d="M193.436 437.992L200.842 442.015L220.447 414.907L209.516 408.97L193.436 437.992Z" fill="#FFB6B6"/>
<path d="M197 428.333L210.445 432.543L208.305 438.176L217.525 451.557C217.98 452.217 218.213 453.007 218.188 453.809C218.163 454.611 217.882 455.384 217.387 456.016C216.892 456.647 216.207 457.104 215.434 457.319C214.661 457.534 213.839 457.496 213.089 457.211L197.437 451.264L196.856 444.668L193.686 449.839L187.785 447.597L197 428.333Z" fill="#2F2E41"/>
<path d="M235.386 316.748C234.204 317.036 232.973 317.061 231.78 316.821C230.587 316.582 229.461 316.084 228.482 315.363C227.502 314.641 226.692 313.714 226.11 312.645C225.528 311.577 225.187 310.394 225.111 309.18L161.941 286.454L173.534 276.366L233.491 300.238C235.54 300.246 237.514 301.005 239.04 302.372C240.566 303.738 241.538 305.617 241.771 307.652C242.005 309.687 241.484 311.737 240.307 313.413C239.13 315.09 237.379 316.276 235.386 316.748Z" fill="#FFB6B6"/>
<path d="M144.294 230.155C144.294 230.155 133.655 230.389 132.709 242.536C131.763 254.682 154.978 284.726 158.574 289.681C162.171 294.635 202.123 300.733 202.123 300.733L215.704 290.874C201.433 281.627 188.41 274.537 179.669 274.856L144.294 230.155Z" fill="#A63A50"/>
<path d="M131.246 283.75L133.838 294.889C133.838 294.889 133.864 305.16 135.683 307.054C137.489 308.939 177.209 305.154 177.209 305.154C177.209 305.154 172.998 288.603 173.054 276.079L131.246 283.75Z" fill="#FFB6B6"/>
<path d="M215.156 426.233L200.825 418.351C200.553 399.704 211.769 374.469 225.072 348.037C195.32 353.154 167.251 354.793 142.973 348.603C138.988 347.55 135.576 344.972 133.476 341.424C131.376 337.877 130.756 333.646 131.75 329.645C131.845 329.252 131.954 328.864 132.078 328.479C134.984 319.614 128.469 314.057 134.461 304.307C150.222 298.924 165.194 297.404 178.886 302.157L187.464 321.124L229.985 315.622C232.039 315.376 234.122 315.54 236.113 316.103C238.103 316.666 239.963 317.617 241.585 318.902C243.206 320.188 244.557 321.781 245.56 323.59C246.563 325.4 247.198 327.39 247.428 329.447C247.485 329.908 247.522 330.372 247.54 330.837C238.942 371.143 229.301 407.411 215.156 426.233Z" fill="#2F2E41"/>
<path d="M133.215 206.775C142.832 204.807 149.032 195.416 147.065 185.799C145.097 176.182 135.706 169.982 126.089 171.949C116.472 173.917 110.271 183.308 112.239 192.925C114.207 202.542 123.598 208.743 133.215 206.775Z" fill="#FFB6B6"/>
<path d="M125.474 213.227L141.854 212.26C142.545 212.219 143.231 212.395 143.817 212.762C144.404 213.13 144.86 213.672 145.124 214.311L149.753 225.533L168.992 241.434C168.992 241.434 176.609 251.128 176.627 263.646C176.645 276.165 179.33 305.14 179.33 305.14C179.33 305.14 168.213 289.492 161.351 293.654C160.184 294.362 159.773 295.81 158.55 296.542C157.94 296.907 156.531 296.552 155.915 296.918C146.46 302.53 136.599 308.014 135.678 307.052C133.869 305.165 131.674 295.518 131.674 295.518L116.68 240.426C115.867 237.528 115.706 234.485 116.208 231.517C116.709 228.548 117.862 225.728 119.582 223.257C120.629 221.782 121.727 220.685 122.747 220.504C125.037 220.016 123.819 214.883 125.474 213.227Z" fill="#A63A50"/>
<path d="M264.816 461.328L271.731 456.521L256.067 426.969L245.862 434.064L264.816 461.328Z" fill="#FFB6B6"/>
<path d="M265.861 441.499L255.025 451.186C237.794 431.986 224.768 405.059 213.729 374.479C184.806 366.008 162.994 352.347 143.952 336.126C137.492 330.66 132.65 323.638 138.159 316.98C138.417 316.669 138.686 316.368 138.966 316.077C145.471 309.392 161.967 310.666 171.629 304.541L193.211 327.61L191.854 333.795L232.393 347.527C234.343 348.211 236.139 349.274 237.677 350.655C239.215 352.036 240.464 353.708 241.352 355.575C242.24 357.441 242.75 359.465 242.853 361.529C242.955 363.593 242.648 365.657 241.948 367.602C241.796 368.042 241.626 368.475 241.437 368.9L265.861 441.499Z" fill="#2F2E41"/>
<path d="M260.785 459.379L271.853 450.663L275.292 455.61L291.542 455.561C292.344 455.558 293.127 455.813 293.775 456.286C294.423 456.76 294.902 457.428 295.143 458.193C295.385 458.959 295.375 459.781 295.116 460.541C294.856 461.3 294.361 461.957 293.702 462.415L279.954 471.972L274.182 468.725L276.659 474.262L271.475 477.866L260.785 459.379Z" fill="#2F2E41"/>
<path d="M149.662 352.067C148.542 351.592 147.54 350.877 146.727 349.972C145.913 349.068 145.307 347.996 144.953 346.832C144.598 345.668 144.503 344.441 144.674 343.236C144.845 342.032 145.279 340.879 145.943 339.86L108.86 283.898L124.184 282.734L158.005 337.696C159.643 338.926 160.773 340.714 161.181 342.721C161.588 344.729 161.246 346.816 160.217 348.587C159.189 350.359 157.546 351.692 155.601 352.333C153.656 352.974 151.542 352.88 149.662 352.067Z" fill="#FFB6B6"/>
<path d="M128.341 228.207C128.341 228.207 119.669 222.039 111.654 231.215C103.639 240.391 104.308 278.353 104.233 284.475C104.209 286.392 106.978 290.528 110.792 295.306C112.504 297.451 114.427 299.726 116.402 301.986C117.546 303.295 116.561 306.018 117.709 307.289C118.85 308.554 122.125 308.368 123.211 309.541C128.366 315.113 132.554 319.354 132.554 319.354L149.335 319.56C149.524 307.085 140.982 295.95 130.006 285.188L128.341 228.207Z" fill="#A63A50"/>
<path d="M151.866 180.729C151.208 181.053 150.57 181.367 149.943 181.663C147.428 182.899 144.829 183.957 142.165 184.827C141.722 183.621 141.046 182.515 140.175 181.57C140.398 182.875 140.284 184.214 139.845 185.463C135.813 186.461 131.58 186.298 127.637 184.991C130.216 189.766 132.121 199.828 131.983 208.801C131.922 213.545 131.28 217.984 129.878 221.175L128.076 215.693C127.909 213.734 127.573 211.794 127.072 209.893C125.864 204.56 124.736 208.126 123.075 210.77L111.461 213.307C111.441 213.172 111.426 213.029 111.406 212.894C111.378 212.724 111.351 212.554 111.316 212.386C111.1 211.297 110.706 210.251 110.149 209.29C110.09 210.577 109.71 211.829 109.044 212.931C109.025 212.96 109.009 212.99 108.996 213.022C108.79 213.355 108.562 213.676 108.315 213.98C108.303 213.988 108.293 213.998 108.284 214.008C100.785 215.012 95.529 176.343 106.149 175.624C106.458 175.603 106.516 175.132 106.708 174.888C106.899 174.644 107.085 174.408 107.285 174.17C107.311 174.147 107.332 174.121 107.349 174.091C107.917 173.434 108.504 172.802 109.125 172.192C109.309 172.015 109.499 171.837 109.689 171.659C112.604 168.984 116.073 166.986 119.85 165.807C120.277 165.675 120.719 165.548 121.169 165.427C121.614 165.314 122.068 165.206 122.524 165.113L122.678 165.082C122.896 165.037 123.122 164.998 123.341 164.961C123.616 164.912 123.893 164.87 124.164 164.836C125.182 165.349 126.053 166.112 126.695 167.054L134.115 165.535C134.311 165.495 134.509 165.462 134.709 165.436L134.723 165.433C143.986 163.881 149.942 171.329 151.866 180.729Z" fill="#2F2E41"/>
<path d="M111.426 173.892C109.837 175.039 108.165 176.22 106.227 176.504C104.288 176.788 102.018 175.851 101.482 173.967C100.826 171.663 102.907 169.565 104.777 168.067L110.707 163.319C111.793 162.356 113.018 161.563 114.342 160.968C115.007 160.675 115.73 160.536 116.456 160.56C117.182 160.585 117.893 160.772 118.537 161.108C119.174 161.539 119.691 162.125 120.038 162.812C120.384 163.498 120.549 164.262 120.517 165.03C120.432 166.57 119.924 168.057 119.048 169.326C117.948 171.042 116.511 172.518 114.825 173.664C113.139 174.81 111.239 175.603 109.238 175.995" fill="#2F2E41"/>
<path d="M156.401 297.258H113.409C111.889 297.258 110.431 297.862 109.356 298.937C108.281 300.012 107.677 301.47 107.677 302.99C107.677 304.511 108.281 305.969 109.356 307.044C110.431 308.119 111.889 308.723 113.409 308.723H129.173V353.147H140.637V308.723H156.401C157.921 308.723 159.379 308.119 160.454 307.044C161.529 305.969 162.133 304.511 162.133 302.99C162.133 301.47 161.529 300.012 160.454 298.937C159.379 297.862 157.921 297.258 156.401 297.258Z" fill="#3F3D56"/>
<path d="M315.229 479.063L0.853131 479.283C0.627288 479.283 0.410923 479.193 0.251459 479.033C0.0919946 478.873 0.00244141 478.656 0.00244141 478.43C0.00244141 478.204 0.0919946 477.988 0.251459 477.828C0.410923 477.668 0.627288 477.578 0.853131 477.577L315.229 477.357C315.455 477.358 315.671 477.448 315.831 477.608C315.99 477.768 316.08 477.984 316.08 478.21C316.08 478.436 315.99 478.653 315.831 478.812C315.671 478.972 315.455 479.063 315.229 479.063Z" fill="#CACACA"/>
<path d="M406.715 383.898L413.714 391.524L446.462 368.16L436.132 356.903L406.715 383.898Z" fill="#A0616A"/>
<path d="M421.2 394.691V394.684L420.491 387.068L420.168 386.917L418.284 386.021L409.392 381.815L409.206 381.615L407.421 379.666L397.541 388.737L410.925 403.326L420.104 413.328L420.412 413.042C421.67 411.889 422.688 410.5 423.409 408.954C424.129 407.407 424.538 405.734 424.611 404.03C424.684 402.326 424.42 400.624 423.835 399.021C423.25 397.419 422.355 395.947 421.2 394.691Z" fill="#2F2E41"/>
<path d="M370.457 459.981L380.361 462.99L396.679 426.219L382.061 421.779L370.457 459.981Z" fill="#A0616A"/>
<path d="M396.101 468.214C395.302 466.706 394.212 465.372 392.893 464.29C391.575 463.207 390.054 462.398 388.419 461.909L383.927 455.711L383.576 455.739L371.703 456.829L371.438 456.75L368.915 455.983L365.018 468.816L396.953 478.518L397.075 478.109C397.573 476.477 397.744 474.763 397.576 473.064C397.409 471.366 396.908 469.718 396.101 468.214Z" fill="#2F2E41"/>
<path d="M452.127 267.456C452.127 267.456 515.361 328.509 475.385 347.408H463.029C463.029 347.408 459.316 334.216 450.816 323.092C449.649 321.564 445.275 321.875 444.061 320.386C436.645 311.295 428.606 303.488 423.054 303.798L424.382 345.982L426.532 361.029C427.66 368.808 395.805 436.725 395.805 436.725L375.783 428.856C375.783 428.856 396.644 372.916 396.888 364.851L380.171 276.178L452.127 267.456Z" fill="#2F2E41"/>
<path d="M457.399 270.467C457.077 270.927 456.656 271.309 456.167 271.585C455.361 272.04 454.488 272.365 453.58 272.545C439.343 275.777 392.833 282.476 380.76 279.28C379.276 278.894 378.309 278.349 377.994 277.632C376.984 275.368 377.112 265.803 377.707 254.252C377.815 252.088 380.201 249.745 380.344 247.481C380.444 245.783 378.302 244.185 378.417 242.458C379.205 230.779 380.222 218.877 380.903 211.354C381.333 206.517 381.627 203.493 381.627 203.493L374.282 157.184L374.626 156.618L375.013 156.425L398.694 144.702L399.984 141.406C400.358 140.457 401.007 139.642 401.849 139.066C402.691 138.49 403.686 138.18 404.706 138.175L420.305 138.11C421.114 138.106 421.913 138.295 422.634 138.661C423.356 139.028 423.979 139.561 424.453 140.217L428.681 146.071L456.625 163.984L456.518 164.314L443.406 204.217L443.341 207.327V207.334L442.854 232.341L444.208 235.73L442.682 241.29C442.682 241.29 443.384 247.789 447.146 252.618C450.556 257.004 454.899 261.575 456.862 265.287V265.294C457.951 267.343 458.316 269.12 457.399 270.467Z" fill="#58504A"/>
<path d="M478.421 343.781L475.041 348.052C475.041 348.052 443.956 369.799 442.888 371.832L437.976 376.48L426.089 363.774L432.27 356.026C437.217 349.825 443.609 344.932 450.885 341.774L460.359 333.369L478.421 343.781Z" fill="#2F2E41"/>
<path d="M458.669 282.742L453.008 227.949L451.514 205.398L467.358 202.533C467.358 202.533 466.731 218.657 468.806 227.755C470.855 236.733 469.078 281.539 468.951 282.737C470.115 283.777 470.935 285.147 471.304 286.663C471.672 288.18 471.572 289.773 471.015 291.232C470.459 292.69 469.472 293.945 468.187 294.831C466.902 295.716 465.378 296.191 463.817 296.192C462.256 296.193 460.731 295.719 459.445 294.835C458.159 293.95 457.171 292.696 456.614 291.238C456.056 289.781 455.953 288.188 456.32 286.671C456.687 285.153 457.506 283.783 458.669 282.742Z" fill="#A0616A"/>
<path d="M474.125 239.303L453.759 243.519L451.979 236.42L449.903 234.217L445.755 212.49L439.804 199.762L441.351 156.238L456.465 164.254L456.484 164.268C458.795 166.777 460.389 170.369 463.038 173.973C471.385 185.329 472.311 212.923 472.058 228.038C472.054 228.286 472.304 228.548 472.604 228.823C474.025 230.128 474.952 231.883 475.229 233.792C475.507 235.702 475.116 237.648 474.125 239.303Z" fill="#58504A"/>
<path d="M366.449 284.891L372.11 230.098L373.604 207.547L357.759 204.682C357.759 204.682 358.387 220.807 356.312 229.905C354.263 238.882 356.04 283.688 356.166 284.886C355.003 285.927 354.183 287.296 353.814 288.813C353.446 290.33 353.546 291.923 354.103 293.381C354.659 294.84 355.646 296.095 356.931 296.98C358.216 297.866 359.74 298.341 361.301 298.341C362.862 298.342 364.387 297.869 365.673 296.985C366.959 296.1 367.946 294.846 368.504 293.388C369.062 291.93 369.164 290.337 368.797 288.82C368.43 287.303 367.611 285.933 366.449 284.891Z" fill="#A0616A"/>
<path d="M385.317 201.91L380.903 211.354L379.362 214.643L375.214 236.368L373.143 238.567L371.359 245.668L370.52 245.496L355.402 242.365L350.995 241.455C350.002 239.8 349.611 237.853 349.887 235.943C350.164 234.033 351.092 232.277 352.514 230.972C352.815 230.7 353.066 230.435 353.059 230.184C352.808 215.072 353.732 187.479 362.08 176.122C364.731 172.518 366.322 168.928 368.636 166.42C368.643 166.413 368.643 166.406 368.65 166.406L374.282 157.184L374.626 156.618L375.013 156.425L385.317 201.91Z" fill="#58504A"/>
<path d="M412.055 133.67C423.518 133.67 432.81 124.378 432.81 112.915C432.81 101.453 423.518 92.1604 412.055 92.1604C400.593 92.1604 391.301 101.453 391.301 112.915C391.301 124.378 400.593 133.67 412.055 133.67Z" fill="#A0616A"/>
<path d="M435.388 103.81C435.316 100.271 434.915 95.7422 432.435 92.1309C430.343 89.0929 426.123 86.6853 422.189 87.8891C422.233 87.1025 422.058 86.3191 421.684 85.6259C421.31 84.9327 420.75 84.3569 420.068 83.9625C418.578 83.0525 416.787 82.8878 415.203 82.7373C411.212 82.3647 407.078 81.9778 403.036 82.7444C398.501 83.6043 394.789 85.9402 392.862 89.1574L392.819 89.2577L392.425 91.1636C392.372 91.4193 392.265 91.6605 392.11 91.8707C391.956 92.081 391.757 92.2553 391.529 92.3817C391.3 92.5099 391.046 92.5861 390.785 92.6047C390.524 92.6232 390.261 92.5838 390.017 92.4892C389.75 92.3889 389.461 92.3602 389.179 92.4058C388.897 92.4514 388.632 92.5698 388.409 92.7492C388.187 92.9287 388.016 93.1631 387.912 93.4291C387.808 93.6952 387.776 93.9837 387.817 94.2662L387.925 95.0257L386.786 94.8108C386.5 94.7554 386.204 94.7774 385.929 94.8744C385.655 94.9715 385.411 95.1401 385.223 95.3629C385.036 95.5856 384.911 95.8545 384.862 96.1416C384.813 96.4287 384.841 96.7237 384.944 96.9962L385.259 97.8632C385.024 97.8663 384.792 97.9168 384.576 98.0116C384.361 98.1063 384.167 98.2435 384.005 98.4149C383.775 98.6647 383.631 98.9811 383.592 99.3185C383.553 99.6559 383.623 99.9969 383.79 100.292C385.067 102.472 386.877 104.291 389.05 105.58C390.027 106.169 391.081 106.62 392.181 106.92C392.41 106.985 392.647 107.042 392.89 107.092C401.688 108.988 410.757 109.26 419.653 107.895C419.129 109.649 418.927 111.485 419.058 113.311C419.344 115.597 420.684 117.482 422.476 118.112C422.881 118.25 423.299 118.35 423.722 118.413C424.129 118.479 424.529 118.577 424.919 118.707C425.495 118.918 426.006 119.278 426.398 119.749C426.791 120.221 427.052 120.788 427.156 121.393C427.259 121.998 427.2 122.619 426.986 123.194C426.772 123.77 426.41 124.278 425.937 124.668C425.937 124.668 427.814 126.223 428.05 126.144C428.973 125.737 429.745 125.05 430.257 124.181C433.833 119.037 435.56 112.187 435.388 103.81Z" fill="#2F2E41"/>
<path d="M122.559 431.62L101.924 424.152C100.256 414.005 101.446 403.654 105.392 394C112.292 411.198 136.895 417.126 149.845 431.41C153.845 435.893 156.639 441.104 158.022 446.658C159.404 452.213 159.339 457.968 157.83 463.497L160.997 477.063C150.651 475.504 140.814 472.004 132.164 466.803C123.515 461.602 116.258 454.824 110.894 446.936C107.935 442.485 105.629 437.725 104.031 432.77C113.154 432.656 122.559 431.62 122.559 431.62Z" fill="#63BE63"/>
<path d="M105.532 395.468C108.288 431.122 131.085 422.27 160.026 476.718" stroke="white"/>
<path d="M114.137 448.867C124.939 453.619 131.146 453.475 142.371 450.051" stroke="white"/>
<path d="M134.19 438.989C138.236 431.164 138.873 426.791 133.571 419.065" stroke="white"/>
<path d="M154.524 476.989H197.516C199.036 476.989 200.494 476.385 201.569 475.31C202.644 474.235 203.248 472.777 203.248 471.257C203.248 469.737 202.644 468.279 201.569 467.204C200.494 466.129 199.036 465.525 197.516 465.525H181.752V368.794H170.288V465.525H154.524C153.004 465.525 151.546 466.129 150.471 467.204C149.396 468.279 148.792 469.737 148.792 471.257C148.792 472.777 149.396 474.235 150.471 475.31C151.546 476.385 153.004 476.989 154.524 476.989Z" fill="#3F3D56"/>
</g>
<defs>
<clipPath id="clip0_167_471">
<rect width="554.686" height="480" fill="white"/>
</clipPath>
</defs>
</svg>
